<mxfile host="app.diagrams.net" modified="2023-11-23T10:27:16.101Z" agent="Mozilla/5.0 (Windows NT 10.0; Win64; x64) AppleWebKit/537.36 (KHTML, like Gecko) Chrome/119.0.0.0 Safari/537.36" etag="hmFfRpE8Amr2NNphA1b8" version="22.1.3" type="github" pages="2">
  <diagram name="board" id="WLKYYc4sZlAXk6cGgWqA">
    <mxGraphModel dx="1011" dy="627" grid="1" gridSize="10" guides="1" tooltips="1" connect="1" arrows="1" fold="1" page="1" pageScale="1" pageWidth="827" pageHeight="1169" math="0" shadow="0">
      <root>
        <mxCell id="0" />
        <mxCell id="1" parent="0" />
        <mxCell id="DN535PrDPL4g8HGj7ArQ-13" style="edgeStyle=orthogonalEdgeStyle;rounded=0;orthogonalLoop=1;jettySize=auto;html=1;entryX=0.5;entryY=1;entryDx=0;entryDy=0;exitX=0.558;exitY=-0.033;exitDx=0;exitDy=0;exitPerimeter=0;" parent="1" source="DN535PrDPL4g8HGj7ArQ-3" target="aIL6StoLtui3CLpilSAT-4" edge="1">
          <mxGeometry relative="1" as="geometry">
            <mxPoint x="360" y="250" as="sourcePoint" />
            <Array as="points">
              <mxPoint x="430" y="339" />
              <mxPoint x="430" y="230" />
            </Array>
          </mxGeometry>
        </mxCell>
        <mxCell id="aIL6StoLtui3CLpilSAT-4" value="id" style="ellipse;whiteSpace=wrap;html=1;align=center;fontStyle=4;" parent="1" vertex="1">
          <mxGeometry x="263" y="190" width="100" height="40" as="geometry" />
        </mxCell>
        <mxCell id="aIL6StoLtui3CLpilSAT-5" value="id" style="ellipse;whiteSpace=wrap;html=1;align=center;fontStyle=4;" parent="1" vertex="1">
          <mxGeometry x="620" y="200" width="100" height="40" as="geometry" />
        </mxCell>
        <mxCell id="aIL6StoLtui3CLpilSAT-7" value="" style="edgeStyle=entityRelationEdgeStyle;fontSize=12;html=1;endArrow=ERzeroToMany;endFill=1;rounded=0;entryX=0;entryY=0.5;entryDx=0;entryDy=0;" parent="1" edge="1">
          <mxGeometry width="100" height="100" relative="1" as="geometry">
            <mxPoint x="483" y="120" as="sourcePoint" />
            <mxPoint x="573" y="120" as="targetPoint" />
            <Array as="points">
              <mxPoint x="573" y="120" />
            </Array>
          </mxGeometry>
        </mxCell>
        <mxCell id="aIL6StoLtui3CLpilSAT-19" value="auhtor" style="whiteSpace=wrap;html=1;align=center;" parent="1" vertex="1">
          <mxGeometry x="183" y="100" width="100" height="40" as="geometry" />
        </mxCell>
        <mxCell id="aIL6StoLtui3CLpilSAT-22" value="post" style="whiteSpace=wrap;html=1;align=center;" parent="1" vertex="1">
          <mxGeometry x="573" y="100" width="100" height="40" as="geometry" />
        </mxCell>
        <mxCell id="aIL6StoLtui3CLpilSAT-23" value="글쓰기" style="shape=rhombus;perimeter=rhombusPerimeter;whiteSpace=wrap;html=1;align=center;" parent="1" vertex="1">
          <mxGeometry x="347" y="90" width="146" height="60" as="geometry" />
        </mxCell>
        <mxCell id="aIL6StoLtui3CLpilSAT-26" value="" style="endArrow=none;html=1;rounded=0;exitX=0.812;exitY=1.008;exitDx=0;exitDy=0;exitPerimeter=0;" parent="1" source="aIL6StoLtui3CLpilSAT-19" target="aIL6StoLtui3CLpilSAT-4" edge="1">
          <mxGeometry relative="1" as="geometry">
            <mxPoint x="313" y="290" as="sourcePoint" />
            <mxPoint x="473" y="290" as="targetPoint" />
          </mxGeometry>
        </mxCell>
        <mxCell id="aIL6StoLtui3CLpilSAT-27" value="name" style="ellipse;whiteSpace=wrap;html=1;align=center;" parent="1" vertex="1">
          <mxGeometry x="153" y="20" width="100" height="40" as="geometry" />
        </mxCell>
        <mxCell id="aIL6StoLtui3CLpilSAT-28" value="email" style="ellipse;whiteSpace=wrap;html=1;align=center;" parent="1" vertex="1">
          <mxGeometry x="43" y="20" width="100" height="40" as="geometry" />
        </mxCell>
        <mxCell id="aIL6StoLtui3CLpilSAT-29" value="password" style="ellipse;whiteSpace=wrap;html=1;align=center;" parent="1" vertex="1">
          <mxGeometry x="23" y="90" width="100" height="40" as="geometry" />
        </mxCell>
        <mxCell id="aIL6StoLtui3CLpilSAT-30" value="role" style="ellipse;whiteSpace=wrap;html=1;align=center;" parent="1" vertex="1">
          <mxGeometry x="33" y="160" width="100" height="40" as="geometry" />
        </mxCell>
        <mxCell id="aIL6StoLtui3CLpilSAT-31" value="address" style="ellipse;whiteSpace=wrap;html=1;align=center;" parent="1" vertex="1">
          <mxGeometry x="143" y="190" width="100" height="40" as="geometry" />
        </mxCell>
        <mxCell id="aIL6StoLtui3CLpilSAT-32" value="age" style="ellipse;whiteSpace=wrap;html=1;align=center;" parent="1" vertex="1">
          <mxGeometry x="300" y="20" width="100" height="40" as="geometry" />
        </mxCell>
        <mxCell id="aIL6StoLtui3CLpilSAT-37" value="content" style="ellipse;whiteSpace=wrap;html=1;align=center;" parent="1" vertex="1">
          <mxGeometry x="703" y="90" width="100" height="40" as="geometry" />
        </mxCell>
        <mxCell id="aIL6StoLtui3CLpilSAT-38" value="title" style="ellipse;whiteSpace=wrap;html=1;align=center;" parent="1" vertex="1">
          <mxGeometry x="703" y="150" width="100" height="40" as="geometry" />
        </mxCell>
        <mxCell id="aIL6StoLtui3CLpilSAT-40" value="price" style="ellipse;whiteSpace=wrap;html=1;align=center;" parent="1" vertex="1">
          <mxGeometry x="493" y="20" width="100" height="40" as="geometry" />
        </mxCell>
        <mxCell id="aIL6StoLtui3CLpilSAT-41" value="created_at" style="ellipse;whiteSpace=wrap;html=1;align=center;" parent="1" vertex="1">
          <mxGeometry x="633" y="20" width="100" height="40" as="geometry" />
        </mxCell>
        <mxCell id="aIL6StoLtui3CLpilSAT-43" value="" style="endArrow=none;html=1;rounded=0;exitX=0.5;exitY=0;exitDx=0;exitDy=0;entryX=0.5;entryY=1;entryDx=0;entryDy=0;" parent="1" source="aIL6StoLtui3CLpilSAT-19" target="aIL6StoLtui3CLpilSAT-27" edge="1">
          <mxGeometry relative="1" as="geometry">
            <mxPoint x="243" y="110" as="sourcePoint" />
            <mxPoint x="323" y="70" as="targetPoint" />
          </mxGeometry>
        </mxCell>
        <mxCell id="aIL6StoLtui3CLpilSAT-44" value="" style="endArrow=none;html=1;rounded=0;exitX=0.25;exitY=0;exitDx=0;exitDy=0;entryX=1;entryY=1;entryDx=0;entryDy=0;" parent="1" source="aIL6StoLtui3CLpilSAT-19" target="aIL6StoLtui3CLpilSAT-28" edge="1">
          <mxGeometry relative="1" as="geometry">
            <mxPoint x="253" y="120" as="sourcePoint" />
            <mxPoint x="333" y="80" as="targetPoint" />
          </mxGeometry>
        </mxCell>
        <mxCell id="aIL6StoLtui3CLpilSAT-45" value="" style="endArrow=none;html=1;rounded=0;entryX=1;entryY=0.5;entryDx=0;entryDy=0;" parent="1" target="aIL6StoLtui3CLpilSAT-29" edge="1">
          <mxGeometry relative="1" as="geometry">
            <mxPoint x="183" y="120" as="sourcePoint" />
            <mxPoint x="343" y="90" as="targetPoint" />
          </mxGeometry>
        </mxCell>
        <mxCell id="aIL6StoLtui3CLpilSAT-46" value="" style="endArrow=none;html=1;rounded=0;exitX=0;exitY=1;exitDx=0;exitDy=0;entryX=1;entryY=0;entryDx=0;entryDy=0;" parent="1" source="aIL6StoLtui3CLpilSAT-19" target="aIL6StoLtui3CLpilSAT-30" edge="1">
          <mxGeometry relative="1" as="geometry">
            <mxPoint x="273" y="140" as="sourcePoint" />
            <mxPoint x="353" y="100" as="targetPoint" />
          </mxGeometry>
        </mxCell>
        <mxCell id="aIL6StoLtui3CLpilSAT-47" value="" style="endArrow=none;html=1;rounded=0;exitX=0.5;exitY=0;exitDx=0;exitDy=0;entryX=0.4;entryY=1.019;entryDx=0;entryDy=0;entryPerimeter=0;" parent="1" source="aIL6StoLtui3CLpilSAT-31" target="aIL6StoLtui3CLpilSAT-19" edge="1">
          <mxGeometry relative="1" as="geometry">
            <mxPoint x="283" y="150" as="sourcePoint" />
            <mxPoint x="363" y="110" as="targetPoint" />
          </mxGeometry>
        </mxCell>
        <mxCell id="aIL6StoLtui3CLpilSAT-48" value="" style="endArrow=none;html=1;rounded=0;exitX=0.812;exitY=-0.033;exitDx=0;exitDy=0;exitPerimeter=0;" parent="1" source="aIL6StoLtui3CLpilSAT-19" target="aIL6StoLtui3CLpilSAT-32" edge="1">
          <mxGeometry relative="1" as="geometry">
            <mxPoint x="293" y="160" as="sourcePoint" />
            <mxPoint x="373" y="120" as="targetPoint" />
          </mxGeometry>
        </mxCell>
        <mxCell id="aIL6StoLtui3CLpilSAT-49" value="" style="endArrow=none;html=1;rounded=0;entryX=1;entryY=0.5;entryDx=0;entryDy=0;" parent="1" target="aIL6StoLtui3CLpilSAT-61" edge="1">
          <mxGeometry relative="1" as="geometry">
            <mxPoint x="600" y="140" as="sourcePoint" />
            <mxPoint x="383" y="130" as="targetPoint" />
          </mxGeometry>
        </mxCell>
        <mxCell id="aIL6StoLtui3CLpilSAT-50" value="" style="endArrow=none;html=1;rounded=0;exitX=1;exitY=0.5;exitDx=0;exitDy=0;entryX=0;entryY=0.5;entryDx=0;entryDy=0;" parent="1" source="aIL6StoLtui3CLpilSAT-22" target="aIL6StoLtui3CLpilSAT-37" edge="1">
          <mxGeometry relative="1" as="geometry">
            <mxPoint x="623" y="110" as="sourcePoint" />
            <mxPoint x="703" y="70" as="targetPoint" />
          </mxGeometry>
        </mxCell>
        <mxCell id="aIL6StoLtui3CLpilSAT-51" value="" style="endArrow=none;html=1;rounded=0;exitX=0.5;exitY=0;exitDx=0;exitDy=0;entryX=0.5;entryY=1;entryDx=0;entryDy=0;" parent="1" source="aIL6StoLtui3CLpilSAT-22" target="aIL6StoLtui3CLpilSAT-41" edge="1">
          <mxGeometry relative="1" as="geometry">
            <mxPoint x="633" y="120" as="sourcePoint" />
            <mxPoint x="713" y="80" as="targetPoint" />
          </mxGeometry>
        </mxCell>
        <mxCell id="aIL6StoLtui3CLpilSAT-52" value="" style="endArrow=none;html=1;rounded=0;exitX=0;exitY=0.25;exitDx=0;exitDy=0;entryX=1;entryY=1;entryDx=0;entryDy=0;exitPerimeter=0;" parent="1" source="aIL6StoLtui3CLpilSAT-38" target="aIL6StoLtui3CLpilSAT-22" edge="1">
          <mxGeometry relative="1" as="geometry">
            <mxPoint x="643" y="130" as="sourcePoint" />
            <mxPoint x="723" y="90" as="targetPoint" />
          </mxGeometry>
        </mxCell>
        <mxCell id="aIL6StoLtui3CLpilSAT-53" value="" style="endArrow=none;html=1;rounded=0;entryX=0.5;entryY=0;entryDx=0;entryDy=0;exitX=0.633;exitY=1.019;exitDx=0;exitDy=0;exitPerimeter=0;" parent="1" source="aIL6StoLtui3CLpilSAT-22" target="aIL6StoLtui3CLpilSAT-5" edge="1">
          <mxGeometry relative="1" as="geometry">
            <mxPoint x="643" y="150" as="sourcePoint" />
            <mxPoint x="653" y="178.55999999999995" as="targetPoint" />
          </mxGeometry>
        </mxCell>
        <mxCell id="aIL6StoLtui3CLpilSAT-54" value="" style="endArrow=none;html=1;rounded=0;exitX=0.76;exitY=1.05;exitDx=0;exitDy=0;entryX=0.178;entryY=0.05;entryDx=0;entryDy=0;exitPerimeter=0;entryPerimeter=0;" parent="1" source="aIL6StoLtui3CLpilSAT-40" target="aIL6StoLtui3CLpilSAT-22" edge="1">
          <mxGeometry relative="1" as="geometry">
            <mxPoint x="663" y="150" as="sourcePoint" />
            <mxPoint x="743" y="110" as="targetPoint" />
          </mxGeometry>
        </mxCell>
        <mxCell id="DN535PrDPL4g8HGj7ArQ-15" style="edgeStyle=orthogonalEdgeStyle;rounded=0;orthogonalLoop=1;jettySize=auto;html=1;exitX=0;exitY=0;exitDx=0;exitDy=0;entryX=1;entryY=0;entryDx=0;entryDy=0;" parent="1" source="aIL6StoLtui3CLpilSAT-61" target="aIL6StoLtui3CLpilSAT-4" edge="1">
          <mxGeometry relative="1" as="geometry" />
        </mxCell>
        <mxCell id="aIL6StoLtui3CLpilSAT-61" value="auth_id" style="ellipse;whiteSpace=wrap;html=1;align=center;" parent="1" vertex="1">
          <mxGeometry x="478" y="190" width="100" height="40" as="geometry" />
        </mxCell>
        <mxCell id="aIL6StoLtui3CLpilSAT-63" value="" style="edgeStyle=entityRelationEdgeStyle;fontSize=12;html=1;endArrow=ERzeroToOne;endFill=1;rounded=0;entryX=1;entryY=0.5;entryDx=0;entryDy=0;exitX=0;exitY=0.5;exitDx=0;exitDy=0;" parent="1" source="aIL6StoLtui3CLpilSAT-23" target="aIL6StoLtui3CLpilSAT-19" edge="1">
          <mxGeometry width="100" height="100" relative="1" as="geometry">
            <mxPoint x="260" y="290" as="sourcePoint" />
            <mxPoint x="360" y="190" as="targetPoint" />
          </mxGeometry>
        </mxCell>
        <mxCell id="gIYqlTLOI5B5svs59ngF-2" value="author" style="shape=table;startSize=30;container=1;collapsible=1;childLayout=tableLayout;fixedRows=1;rowLines=0;fontStyle=1;align=center;resizeLast=1;html=1;" parent="1" vertex="1">
          <mxGeometry x="160" y="570" width="180" height="240" as="geometry" />
        </mxCell>
        <mxCell id="gIYqlTLOI5B5svs59ngF-3" value="" style="shape=tableRow;horizontal=0;startSize=0;swimlaneHead=0;swimlaneBody=0;fillColor=none;collapsible=0;dropTarget=0;points=[[0,0.5],[1,0.5]];portConstraint=eastwest;top=0;left=0;right=0;bottom=1;" parent="gIYqlTLOI5B5svs59ngF-2" vertex="1">
          <mxGeometry y="30" width="180" height="30" as="geometry" />
        </mxCell>
        <mxCell id="gIYqlTLOI5B5svs59ngF-4" value="PK" style="shape=partialRectangle;connectable=0;fillColor=none;top=0;left=0;bottom=0;right=0;fontStyle=1;overflow=hidden;whiteSpace=wrap;html=1;" parent="gIYqlTLOI5B5svs59ngF-3" vertex="1">
          <mxGeometry width="30" height="30" as="geometry">
            <mxRectangle width="30" height="30" as="alternateBounds" />
          </mxGeometry>
        </mxCell>
        <mxCell id="gIYqlTLOI5B5svs59ngF-5" value="id: int" style="shape=partialRectangle;connectable=0;fillColor=none;top=0;left=0;bottom=0;right=0;align=left;spacingLeft=6;fontStyle=5;overflow=hidden;whiteSpace=wrap;html=1;" parent="gIYqlTLOI5B5svs59ngF-3" vertex="1">
          <mxGeometry x="30" width="150" height="30" as="geometry">
            <mxRectangle width="150" height="30" as="alternateBounds" />
          </mxGeometry>
        </mxCell>
        <mxCell id="gIYqlTLOI5B5svs59ngF-6" value="" style="shape=tableRow;horizontal=0;startSize=0;swimlaneHead=0;swimlaneBody=0;fillColor=none;collapsible=0;dropTarget=0;points=[[0,0.5],[1,0.5]];portConstraint=eastwest;top=0;left=0;right=0;bottom=0;" parent="gIYqlTLOI5B5svs59ngF-2" vertex="1">
          <mxGeometry y="60" width="180" height="30" as="geometry" />
        </mxCell>
        <mxCell id="gIYqlTLOI5B5svs59ngF-7" value="" style="shape=partialRectangle;connectable=0;fillColor=none;top=0;left=0;bottom=0;right=0;editable=1;overflow=hidden;whiteSpace=wrap;html=1;" parent="gIYqlTLOI5B5svs59ngF-6" vertex="1">
          <mxGeometry width="30" height="30" as="geometry">
            <mxRectangle width="30" height="30" as="alternateBounds" />
          </mxGeometry>
        </mxCell>
        <mxCell id="gIYqlTLOI5B5svs59ngF-8" value="name : varchar(100)" style="shape=partialRectangle;connectable=0;fillColor=none;top=0;left=0;bottom=0;right=0;align=left;spacingLeft=6;overflow=hidden;whiteSpace=wrap;html=1;" parent="gIYqlTLOI5B5svs59ngF-6" vertex="1">
          <mxGeometry x="30" width="150" height="30" as="geometry">
            <mxRectangle width="150" height="30" as="alternateBounds" />
          </mxGeometry>
        </mxCell>
        <mxCell id="gIYqlTLOI5B5svs59ngF-9" value="" style="shape=tableRow;horizontal=0;startSize=0;swimlaneHead=0;swimlaneBody=0;fillColor=none;collapsible=0;dropTarget=0;points=[[0,0.5],[1,0.5]];portConstraint=eastwest;top=0;left=0;right=0;bottom=0;" parent="gIYqlTLOI5B5svs59ngF-2" vertex="1">
          <mxGeometry y="90" width="180" height="30" as="geometry" />
        </mxCell>
        <mxCell id="gIYqlTLOI5B5svs59ngF-10" value="" style="shape=partialRectangle;connectable=0;fillColor=none;top=0;left=0;bottom=0;right=0;editable=1;overflow=hidden;whiteSpace=wrap;html=1;" parent="gIYqlTLOI5B5svs59ngF-9" vertex="1">
          <mxGeometry width="30" height="30" as="geometry">
            <mxRectangle width="30" height="30" as="alternateBounds" />
          </mxGeometry>
        </mxCell>
        <mxCell id="gIYqlTLOI5B5svs59ngF-11" value="email : varchar(255)" style="shape=partialRectangle;connectable=0;fillColor=none;top=0;left=0;bottom=0;right=0;align=left;spacingLeft=6;overflow=hidden;whiteSpace=wrap;html=1;" parent="gIYqlTLOI5B5svs59ngF-9" vertex="1">
          <mxGeometry x="30" width="150" height="30" as="geometry">
            <mxRectangle width="150" height="30" as="alternateBounds" />
          </mxGeometry>
        </mxCell>
        <mxCell id="gIYqlTLOI5B5svs59ngF-12" value="" style="shape=tableRow;horizontal=0;startSize=0;swimlaneHead=0;swimlaneBody=0;fillColor=none;collapsible=0;dropTarget=0;points=[[0,0.5],[1,0.5]];portConstraint=eastwest;top=0;left=0;right=0;bottom=0;" parent="gIYqlTLOI5B5svs59ngF-2" vertex="1">
          <mxGeometry y="120" width="180" height="30" as="geometry" />
        </mxCell>
        <mxCell id="gIYqlTLOI5B5svs59ngF-13" value="" style="shape=partialRectangle;connectable=0;fillColor=none;top=0;left=0;bottom=0;right=0;editable=1;overflow=hidden;whiteSpace=wrap;html=1;" parent="gIYqlTLOI5B5svs59ngF-12" vertex="1">
          <mxGeometry width="30" height="30" as="geometry">
            <mxRectangle width="30" height="30" as="alternateBounds" />
          </mxGeometry>
        </mxCell>
        <mxCell id="gIYqlTLOI5B5svs59ngF-14" value="password&amp;nbsp;: varchar(255)" style="shape=partialRectangle;connectable=0;fillColor=none;top=0;left=0;bottom=0;right=0;align=left;spacingLeft=6;overflow=hidden;whiteSpace=wrap;html=1;" parent="gIYqlTLOI5B5svs59ngF-12" vertex="1">
          <mxGeometry x="30" width="150" height="30" as="geometry">
            <mxRectangle width="150" height="30" as="alternateBounds" />
          </mxGeometry>
        </mxCell>
        <mxCell id="gIYqlTLOI5B5svs59ngF-39" value="" style="shape=tableRow;horizontal=0;startSize=0;swimlaneHead=0;swimlaneBody=0;fillColor=none;collapsible=0;dropTarget=0;points=[[0,0.5],[1,0.5]];portConstraint=eastwest;top=0;left=0;right=0;bottom=0;" parent="gIYqlTLOI5B5svs59ngF-2" vertex="1">
          <mxGeometry y="150" width="180" height="30" as="geometry" />
        </mxCell>
        <mxCell id="gIYqlTLOI5B5svs59ngF-40" value="" style="shape=partialRectangle;connectable=0;fillColor=none;top=0;left=0;bottom=0;right=0;editable=1;overflow=hidden;whiteSpace=wrap;html=1;" parent="gIYqlTLOI5B5svs59ngF-39" vertex="1">
          <mxGeometry width="30" height="30" as="geometry">
            <mxRectangle width="30" height="30" as="alternateBounds" />
          </mxGeometry>
        </mxCell>
        <mxCell id="gIYqlTLOI5B5svs59ngF-41" value="role : enum" style="shape=partialRectangle;connectable=0;fillColor=none;top=0;left=0;bottom=0;right=0;align=left;spacingLeft=6;overflow=hidden;whiteSpace=wrap;html=1;" parent="gIYqlTLOI5B5svs59ngF-39" vertex="1">
          <mxGeometry x="30" width="150" height="30" as="geometry">
            <mxRectangle width="150" height="30" as="alternateBounds" />
          </mxGeometry>
        </mxCell>
        <mxCell id="gIYqlTLOI5B5svs59ngF-42" value="" style="shape=tableRow;horizontal=0;startSize=0;swimlaneHead=0;swimlaneBody=0;fillColor=none;collapsible=0;dropTarget=0;points=[[0,0.5],[1,0.5]];portConstraint=eastwest;top=0;left=0;right=0;bottom=0;" parent="gIYqlTLOI5B5svs59ngF-2" vertex="1">
          <mxGeometry y="180" width="180" height="30" as="geometry" />
        </mxCell>
        <mxCell id="gIYqlTLOI5B5svs59ngF-43" value="" style="shape=partialRectangle;connectable=0;fillColor=none;top=0;left=0;bottom=0;right=0;editable=1;overflow=hidden;whiteSpace=wrap;html=1;" parent="gIYqlTLOI5B5svs59ngF-42" vertex="1">
          <mxGeometry width="30" height="30" as="geometry">
            <mxRectangle width="30" height="30" as="alternateBounds" />
          </mxGeometry>
        </mxCell>
        <mxCell id="gIYqlTLOI5B5svs59ngF-44" value="address&amp;nbsp;: varchar(255)" style="shape=partialRectangle;connectable=0;fillColor=none;top=0;left=0;bottom=0;right=0;align=left;spacingLeft=6;overflow=hidden;whiteSpace=wrap;html=1;" parent="gIYqlTLOI5B5svs59ngF-42" vertex="1">
          <mxGeometry x="30" width="150" height="30" as="geometry">
            <mxRectangle width="150" height="30" as="alternateBounds" />
          </mxGeometry>
        </mxCell>
        <mxCell id="gIYqlTLOI5B5svs59ngF-45" value="" style="shape=tableRow;horizontal=0;startSize=0;swimlaneHead=0;swimlaneBody=0;fillColor=none;collapsible=0;dropTarget=0;points=[[0,0.5],[1,0.5]];portConstraint=eastwest;top=0;left=0;right=0;bottom=0;" parent="gIYqlTLOI5B5svs59ngF-2" vertex="1">
          <mxGeometry y="210" width="180" height="30" as="geometry" />
        </mxCell>
        <mxCell id="gIYqlTLOI5B5svs59ngF-46" value="" style="shape=partialRectangle;connectable=0;fillColor=none;top=0;left=0;bottom=0;right=0;editable=1;overflow=hidden;whiteSpace=wrap;html=1;" parent="gIYqlTLOI5B5svs59ngF-45" vertex="1">
          <mxGeometry width="30" height="30" as="geometry">
            <mxRectangle width="30" height="30" as="alternateBounds" />
          </mxGeometry>
        </mxCell>
        <mxCell id="gIYqlTLOI5B5svs59ngF-47" value="age : tinyint" style="shape=partialRectangle;connectable=0;fillColor=none;top=0;left=0;bottom=0;right=0;align=left;spacingLeft=6;overflow=hidden;whiteSpace=wrap;html=1;" parent="gIYqlTLOI5B5svs59ngF-45" vertex="1">
          <mxGeometry x="30" width="150" height="30" as="geometry">
            <mxRectangle width="150" height="30" as="alternateBounds" />
          </mxGeometry>
        </mxCell>
        <mxCell id="gIYqlTLOI5B5svs59ngF-51" value="post" style="shape=table;startSize=30;container=1;collapsible=1;childLayout=tableLayout;fixedRows=1;rowLines=0;fontStyle=1;align=center;resizeLast=1;html=1;" parent="1" vertex="1">
          <mxGeometry x="498" y="590" width="180" height="210" as="geometry" />
        </mxCell>
        <mxCell id="gIYqlTLOI5B5svs59ngF-52" value="" style="shape=tableRow;horizontal=0;startSize=0;swimlaneHead=0;swimlaneBody=0;fillColor=none;collapsible=0;dropTarget=0;points=[[0,0.5],[1,0.5]];portConstraint=eastwest;top=0;left=0;right=0;bottom=1;" parent="gIYqlTLOI5B5svs59ngF-51" vertex="1">
          <mxGeometry y="30" width="180" height="30" as="geometry" />
        </mxCell>
        <mxCell id="gIYqlTLOI5B5svs59ngF-53" value="PK" style="shape=partialRectangle;connectable=0;fillColor=none;top=0;left=0;bottom=0;right=0;fontStyle=1;overflow=hidden;whiteSpace=wrap;html=1;" parent="gIYqlTLOI5B5svs59ngF-52" vertex="1">
          <mxGeometry width="30" height="30" as="geometry">
            <mxRectangle width="30" height="30" as="alternateBounds" />
          </mxGeometry>
        </mxCell>
        <mxCell id="gIYqlTLOI5B5svs59ngF-54" value="id: int" style="shape=partialRectangle;connectable=0;fillColor=none;top=0;left=0;bottom=0;right=0;align=left;spacingLeft=6;fontStyle=5;overflow=hidden;whiteSpace=wrap;html=1;" parent="gIYqlTLOI5B5svs59ngF-52" vertex="1">
          <mxGeometry x="30" width="150" height="30" as="geometry">
            <mxRectangle width="150" height="30" as="alternateBounds" />
          </mxGeometry>
        </mxCell>
        <mxCell id="gIYqlTLOI5B5svs59ngF-55" value="" style="shape=tableRow;horizontal=0;startSize=0;swimlaneHead=0;swimlaneBody=0;fillColor=none;collapsible=0;dropTarget=0;points=[[0,0.5],[1,0.5]];portConstraint=eastwest;top=0;left=0;right=0;bottom=0;" parent="gIYqlTLOI5B5svs59ngF-51" vertex="1">
          <mxGeometry y="60" width="180" height="30" as="geometry" />
        </mxCell>
        <mxCell id="gIYqlTLOI5B5svs59ngF-56" value="" style="shape=partialRectangle;connectable=0;fillColor=none;top=0;left=0;bottom=0;right=0;editable=1;overflow=hidden;whiteSpace=wrap;html=1;" parent="gIYqlTLOI5B5svs59ngF-55" vertex="1">
          <mxGeometry width="30" height="30" as="geometry">
            <mxRectangle width="30" height="30" as="alternateBounds" />
          </mxGeometry>
        </mxCell>
        <mxCell id="gIYqlTLOI5B5svs59ngF-57" value="title : varchar(100)" style="shape=partialRectangle;connectable=0;fillColor=none;top=0;left=0;bottom=0;right=0;align=left;spacingLeft=6;overflow=hidden;whiteSpace=wrap;html=1;" parent="gIYqlTLOI5B5svs59ngF-55" vertex="1">
          <mxGeometry x="30" width="150" height="30" as="geometry">
            <mxRectangle width="150" height="30" as="alternateBounds" />
          </mxGeometry>
        </mxCell>
        <mxCell id="gIYqlTLOI5B5svs59ngF-58" value="" style="shape=tableRow;horizontal=0;startSize=0;swimlaneHead=0;swimlaneBody=0;fillColor=none;collapsible=0;dropTarget=0;points=[[0,0.5],[1,0.5]];portConstraint=eastwest;top=0;left=0;right=0;bottom=0;" parent="gIYqlTLOI5B5svs59ngF-51" vertex="1">
          <mxGeometry y="90" width="180" height="30" as="geometry" />
        </mxCell>
        <mxCell id="gIYqlTLOI5B5svs59ngF-59" value="" style="shape=partialRectangle;connectable=0;fillColor=none;top=0;left=0;bottom=0;right=0;editable=1;overflow=hidden;whiteSpace=wrap;html=1;" parent="gIYqlTLOI5B5svs59ngF-58" vertex="1">
          <mxGeometry width="30" height="30" as="geometry">
            <mxRectangle width="30" height="30" as="alternateBounds" />
          </mxGeometry>
        </mxCell>
        <mxCell id="gIYqlTLOI5B5svs59ngF-60" value="content : varchar(255)" style="shape=partialRectangle;connectable=0;fillColor=none;top=0;left=0;bottom=0;right=0;align=left;spacingLeft=6;overflow=hidden;whiteSpace=wrap;html=1;" parent="gIYqlTLOI5B5svs59ngF-58" vertex="1">
          <mxGeometry x="30" width="150" height="30" as="geometry">
            <mxRectangle width="150" height="30" as="alternateBounds" />
          </mxGeometry>
        </mxCell>
        <mxCell id="gIYqlTLOI5B5svs59ngF-64" value="" style="shape=tableRow;horizontal=0;startSize=0;swimlaneHead=0;swimlaneBody=0;fillColor=none;collapsible=0;dropTarget=0;points=[[0,0.5],[1,0.5]];portConstraint=eastwest;top=0;left=0;right=0;bottom=0;" parent="gIYqlTLOI5B5svs59ngF-51" vertex="1">
          <mxGeometry y="120" width="180" height="30" as="geometry" />
        </mxCell>
        <mxCell id="gIYqlTLOI5B5svs59ngF-65" value="" style="shape=partialRectangle;connectable=0;fillColor=none;top=0;left=0;bottom=0;right=0;editable=1;overflow=hidden;whiteSpace=wrap;html=1;" parent="gIYqlTLOI5B5svs59ngF-64" vertex="1">
          <mxGeometry width="30" height="30" as="geometry">
            <mxRectangle width="30" height="30" as="alternateBounds" />
          </mxGeometry>
        </mxCell>
        <mxCell id="gIYqlTLOI5B5svs59ngF-66" value="price : decimal" style="shape=partialRectangle;connectable=0;fillColor=none;top=0;left=0;bottom=0;right=0;align=left;spacingLeft=6;overflow=hidden;whiteSpace=wrap;html=1;" parent="gIYqlTLOI5B5svs59ngF-64" vertex="1">
          <mxGeometry x="30" width="150" height="30" as="geometry">
            <mxRectangle width="150" height="30" as="alternateBounds" />
          </mxGeometry>
        </mxCell>
        <mxCell id="gIYqlTLOI5B5svs59ngF-67" value="" style="shape=tableRow;horizontal=0;startSize=0;swimlaneHead=0;swimlaneBody=0;fillColor=none;collapsible=0;dropTarget=0;points=[[0,0.5],[1,0.5]];portConstraint=eastwest;top=0;left=0;right=0;bottom=0;" parent="gIYqlTLOI5B5svs59ngF-51" vertex="1">
          <mxGeometry y="150" width="180" height="30" as="geometry" />
        </mxCell>
        <mxCell id="gIYqlTLOI5B5svs59ngF-68" value="" style="shape=partialRectangle;connectable=0;fillColor=none;top=0;left=0;bottom=0;right=0;editable=1;overflow=hidden;whiteSpace=wrap;html=1;" parent="gIYqlTLOI5B5svs59ngF-67" vertex="1">
          <mxGeometry width="30" height="30" as="geometry">
            <mxRectangle width="30" height="30" as="alternateBounds" />
          </mxGeometry>
        </mxCell>
        <mxCell id="gIYqlTLOI5B5svs59ngF-69" value="created_at : timestemp" style="shape=partialRectangle;connectable=0;fillColor=none;top=0;left=0;bottom=0;right=0;align=left;spacingLeft=6;overflow=hidden;whiteSpace=wrap;html=1;" parent="gIYqlTLOI5B5svs59ngF-67" vertex="1">
          <mxGeometry x="30" width="150" height="30" as="geometry">
            <mxRectangle width="150" height="30" as="alternateBounds" />
          </mxGeometry>
        </mxCell>
        <mxCell id="gIYqlTLOI5B5svs59ngF-73" value="" style="shape=tableRow;horizontal=0;startSize=0;swimlaneHead=0;swimlaneBody=0;fillColor=none;collapsible=0;dropTarget=0;points=[[0,0.5],[1,0.5]];portConstraint=eastwest;top=0;left=0;right=0;bottom=0;" parent="gIYqlTLOI5B5svs59ngF-51" vertex="1">
          <mxGeometry y="180" width="180" height="30" as="geometry" />
        </mxCell>
        <mxCell id="gIYqlTLOI5B5svs59ngF-74" value="FK" style="shape=partialRectangle;connectable=0;fillColor=none;top=0;left=0;bottom=0;right=0;editable=1;overflow=hidden;whiteSpace=wrap;html=1;" parent="gIYqlTLOI5B5svs59ngF-73" vertex="1">
          <mxGeometry width="30" height="30" as="geometry">
            <mxRectangle width="30" height="30" as="alternateBounds" />
          </mxGeometry>
        </mxCell>
        <mxCell id="gIYqlTLOI5B5svs59ngF-75" value="auth_id : int" style="shape=partialRectangle;connectable=0;fillColor=none;top=0;left=0;bottom=0;right=0;align=left;spacingLeft=6;overflow=hidden;whiteSpace=wrap;html=1;" parent="gIYqlTLOI5B5svs59ngF-73" vertex="1">
          <mxGeometry x="30" width="150" height="30" as="geometry">
            <mxRectangle width="150" height="30" as="alternateBounds" />
          </mxGeometry>
        </mxCell>
        <mxCell id="gIYqlTLOI5B5svs59ngF-83" style="edgeStyle=orthogonalEdgeStyle;rounded=0;orthogonalLoop=1;jettySize=auto;html=1;exitX=0;exitY=0.5;exitDx=0;exitDy=0;entryX=1;entryY=0.5;entryDx=0;entryDy=0;strokeColor=#33FF00;" parent="1" source="gIYqlTLOI5B5svs59ngF-73" target="gIYqlTLOI5B5svs59ngF-3" edge="1">
          <mxGeometry relative="1" as="geometry">
            <Array as="points">
              <mxPoint x="360" y="785" />
              <mxPoint x="360" y="615" />
            </Array>
          </mxGeometry>
        </mxCell>
        <mxCell id="DN535PrDPL4g8HGj7ArQ-1" value="post_author" style="whiteSpace=wrap;html=1;align=center;" parent="1" vertex="1">
          <mxGeometry x="578" y="390" width="100" height="40" as="geometry" />
        </mxCell>
        <mxCell id="DN535PrDPL4g8HGj7ArQ-2" value="id" style="ellipse;whiteSpace=wrap;html=1;align=center;fontStyle=4;" parent="1" vertex="1">
          <mxGeometry x="578" y="320" width="100" height="40" as="geometry" />
        </mxCell>
        <mxCell id="DN535PrDPL4g8HGj7ArQ-3" value="auth_id" style="ellipse;whiteSpace=wrap;html=1;align=center;" parent="1" vertex="1">
          <mxGeometry x="458" y="340" width="100" height="40" as="geometry" />
        </mxCell>
        <mxCell id="DN535PrDPL4g8HGj7ArQ-4" value="post_id" style="ellipse;whiteSpace=wrap;html=1;align=center;" parent="1" vertex="1">
          <mxGeometry x="688" y="340" width="100" height="40" as="geometry" />
        </mxCell>
        <mxCell id="DN535PrDPL4g8HGj7ArQ-7" value="" style="endArrow=none;html=1;rounded=0;exitX=0.5;exitY=1;exitDx=0;exitDy=0;entryX=0.5;entryY=0;entryDx=0;entryDy=0;" parent="1" source="DN535PrDPL4g8HGj7ArQ-2" target="DN535PrDPL4g8HGj7ArQ-1" edge="1">
          <mxGeometry relative="1" as="geometry">
            <mxPoint x="618" y="400" as="sourcePoint" />
            <mxPoint x="654" y="451" as="targetPoint" />
          </mxGeometry>
        </mxCell>
        <mxCell id="DN535PrDPL4g8HGj7ArQ-10" value="" style="endArrow=none;html=1;rounded=0;entryX=0;entryY=0;entryDx=0;entryDy=0;exitX=0.809;exitY=0.872;exitDx=0;exitDy=0;exitPerimeter=0;" parent="1" source="DN535PrDPL4g8HGj7ArQ-3" target="DN535PrDPL4g8HGj7ArQ-1" edge="1">
          <mxGeometry relative="1" as="geometry">
            <mxPoint x="537" y="381" as="sourcePoint" />
            <mxPoint x="598" y="320" as="targetPoint" />
          </mxGeometry>
        </mxCell>
        <mxCell id="DN535PrDPL4g8HGj7ArQ-11" value="" style="endArrow=none;html=1;rounded=0;exitX=1;exitY=0;exitDx=0;exitDy=0;entryX=0.342;entryY=1.008;entryDx=0;entryDy=0;entryPerimeter=0;" parent="1" source="DN535PrDPL4g8HGj7ArQ-1" target="DN535PrDPL4g8HGj7ArQ-4" edge="1">
          <mxGeometry relative="1" as="geometry">
            <mxPoint x="448" y="330" as="sourcePoint" />
            <mxPoint x="608" y="330" as="targetPoint" />
          </mxGeometry>
        </mxCell>
        <mxCell id="DN535PrDPL4g8HGj7ArQ-14" style="edgeStyle=orthogonalEdgeStyle;rounded=0;orthogonalLoop=1;jettySize=auto;html=1;entryX=0.695;entryY=0.988;entryDx=0;entryDy=0;exitX=0.5;exitY=0;exitDx=0;exitDy=0;entryPerimeter=0;" parent="1" source="DN535PrDPL4g8HGj7ArQ-4" target="aIL6StoLtui3CLpilSAT-5" edge="1">
          <mxGeometry relative="1" as="geometry">
            <mxPoint x="336" y="299" as="sourcePoint" />
            <mxPoint x="323" y="240" as="targetPoint" />
          </mxGeometry>
        </mxCell>
        <mxCell id="DN535PrDPL4g8HGj7ArQ-16" value="author_address" style="whiteSpace=wrap;html=1;align=center;" parent="1" vertex="1">
          <mxGeometry x="153" y="390" width="100" height="40" as="geometry" />
        </mxCell>
        <mxCell id="DN535PrDPL4g8HGj7ArQ-17" value="county" style="ellipse;whiteSpace=wrap;html=1;align=center;" parent="1" vertex="1">
          <mxGeometry x="53" y="320" width="100" height="40" as="geometry" />
        </mxCell>
        <mxCell id="DN535PrDPL4g8HGj7ArQ-18" value="stete" style="ellipse;whiteSpace=wrap;html=1;align=center;" parent="1" vertex="1">
          <mxGeometry x="10" y="380" width="100" height="40" as="geometry" />
        </mxCell>
        <mxCell id="DN535PrDPL4g8HGj7ArQ-19" value="detalis" style="ellipse;whiteSpace=wrap;html=1;align=center;" parent="1" vertex="1">
          <mxGeometry x="110" y="480" width="100" height="40" as="geometry" />
        </mxCell>
        <mxCell id="DN535PrDPL4g8HGj7ArQ-20" value="city" style="ellipse;whiteSpace=wrap;html=1;align=center;" parent="1" vertex="1">
          <mxGeometry x="23" y="440" width="100" height="40" as="geometry" />
        </mxCell>
        <mxCell id="DN535PrDPL4g8HGj7ArQ-22" value="zip_code" style="ellipse;whiteSpace=wrap;html=1;align=center;" parent="1" vertex="1">
          <mxGeometry x="230" y="480" width="100" height="40" as="geometry" />
        </mxCell>
        <mxCell id="DN535PrDPL4g8HGj7ArQ-23" value="phone_nunber" style="ellipse;whiteSpace=wrap;html=1;align=center;" parent="1" vertex="1">
          <mxGeometry x="300" y="420" width="100" height="40" as="geometry" />
        </mxCell>
        <mxCell id="DN535PrDPL4g8HGj7ArQ-37" style="edgeStyle=orthogonalEdgeStyle;rounded=0;orthogonalLoop=1;jettySize=auto;html=1;exitX=1;exitY=0;exitDx=0;exitDy=0;entryX=0;entryY=1;entryDx=0;entryDy=0;" parent="1" source="DN535PrDPL4g8HGj7ArQ-25" target="aIL6StoLtui3CLpilSAT-4" edge="1">
          <mxGeometry relative="1" as="geometry" />
        </mxCell>
        <mxCell id="DN535PrDPL4g8HGj7ArQ-25" value="auth_id" style="ellipse;whiteSpace=wrap;html=1;align=center;" parent="1" vertex="1">
          <mxGeometry x="163" y="320" width="100" height="40" as="geometry" />
        </mxCell>
        <mxCell id="DN535PrDPL4g8HGj7ArQ-26" value="id" style="ellipse;whiteSpace=wrap;html=1;align=center;fontStyle=4;" parent="1" vertex="1">
          <mxGeometry x="283" y="340" width="100" height="40" as="geometry" />
        </mxCell>
        <mxCell id="DN535PrDPL4g8HGj7ArQ-28" value="" style="endArrow=none;html=1;rounded=0;exitX=0.5;exitY=0;exitDx=0;exitDy=0;entryX=0.5;entryY=1;entryDx=0;entryDy=0;" parent="1" source="DN535PrDPL4g8HGj7ArQ-16" target="DN535PrDPL4g8HGj7ArQ-25" edge="1">
          <mxGeometry relative="1" as="geometry">
            <mxPoint x="110" y="420" as="sourcePoint" />
            <mxPoint x="140" y="371" as="targetPoint" />
          </mxGeometry>
        </mxCell>
        <mxCell id="DN535PrDPL4g8HGj7ArQ-29" value="" style="endArrow=none;html=1;rounded=0;entryX=0.77;entryY=0.925;entryDx=0;entryDy=0;entryPerimeter=0;" parent="1" source="DN535PrDPL4g8HGj7ArQ-16" target="DN535PrDPL4g8HGj7ArQ-17" edge="1">
          <mxGeometry relative="1" as="geometry">
            <mxPoint x="120" y="430" as="sourcePoint" />
            <mxPoint x="223" y="370" as="targetPoint" />
          </mxGeometry>
        </mxCell>
        <mxCell id="DN535PrDPL4g8HGj7ArQ-30" value="" style="endArrow=none;html=1;rounded=0;entryX=1;entryY=0.5;entryDx=0;entryDy=0;" parent="1" source="DN535PrDPL4g8HGj7ArQ-16" target="DN535PrDPL4g8HGj7ArQ-18" edge="1">
          <mxGeometry relative="1" as="geometry">
            <mxPoint x="150" y="400" as="sourcePoint" />
            <mxPoint x="233" y="380" as="targetPoint" />
          </mxGeometry>
        </mxCell>
        <mxCell id="DN535PrDPL4g8HGj7ArQ-31" value="" style="endArrow=none;html=1;rounded=0;exitX=1;exitY=0;exitDx=0;exitDy=0;entryX=0;entryY=1;entryDx=0;entryDy=0;" parent="1" source="DN535PrDPL4g8HGj7ArQ-20" target="DN535PrDPL4g8HGj7ArQ-16" edge="1">
          <mxGeometry relative="1" as="geometry">
            <mxPoint x="140" y="450" as="sourcePoint" />
            <mxPoint x="243" y="390" as="targetPoint" />
          </mxGeometry>
        </mxCell>
        <mxCell id="DN535PrDPL4g8HGj7ArQ-32" value="" style="endArrow=none;html=1;rounded=0;exitX=0.687;exitY=0.029;exitDx=0;exitDy=0;exitPerimeter=0;" parent="1" source="DN535PrDPL4g8HGj7ArQ-19" target="DN535PrDPL4g8HGj7ArQ-16" edge="1">
          <mxGeometry relative="1" as="geometry">
            <mxPoint x="150" y="460" as="sourcePoint" />
            <mxPoint x="253" y="400" as="targetPoint" />
          </mxGeometry>
        </mxCell>
        <mxCell id="DN535PrDPL4g8HGj7ArQ-33" value="" style="endArrow=none;html=1;rounded=0;exitX=0.5;exitY=0;exitDx=0;exitDy=0;entryX=0.828;entryY=0.988;entryDx=0;entryDy=0;entryPerimeter=0;" parent="1" source="DN535PrDPL4g8HGj7ArQ-22" target="DN535PrDPL4g8HGj7ArQ-16" edge="1">
          <mxGeometry relative="1" as="geometry">
            <mxPoint x="160" y="470" as="sourcePoint" />
            <mxPoint x="263" y="410" as="targetPoint" />
          </mxGeometry>
        </mxCell>
        <mxCell id="DN535PrDPL4g8HGj7ArQ-35" value="" style="endArrow=none;html=1;rounded=0;entryX=0;entryY=0;entryDx=0;entryDy=0;exitX=1;exitY=0.75;exitDx=0;exitDy=0;" parent="1" source="DN535PrDPL4g8HGj7ArQ-16" target="DN535PrDPL4g8HGj7ArQ-23" edge="1">
          <mxGeometry relative="1" as="geometry">
            <mxPoint x="260" y="420" as="sourcePoint" />
            <mxPoint x="273" y="420" as="targetPoint" />
          </mxGeometry>
        </mxCell>
        <mxCell id="DN535PrDPL4g8HGj7ArQ-36" value="" style="endArrow=none;html=1;rounded=0;exitX=1;exitY=0.25;exitDx=0;exitDy=0;entryX=0;entryY=1;entryDx=0;entryDy=0;" parent="1" source="DN535PrDPL4g8HGj7ArQ-16" target="DN535PrDPL4g8HGj7ArQ-26" edge="1">
          <mxGeometry relative="1" as="geometry">
            <mxPoint x="180" y="490" as="sourcePoint" />
            <mxPoint x="283" y="430" as="targetPoint" />
          </mxGeometry>
        </mxCell>
        <mxCell id="DN535PrDPL4g8HGj7ArQ-39" value="post_author" style="shape=table;startSize=30;container=1;collapsible=1;childLayout=tableLayout;fixedRows=1;rowLines=0;fontStyle=1;align=center;resizeLast=1;html=1;" parent="1" vertex="1">
          <mxGeometry x="498" y="890" width="180" height="120" as="geometry" />
        </mxCell>
        <mxCell id="DN535PrDPL4g8HGj7ArQ-40" value="" style="shape=tableRow;horizontal=0;startSize=0;swimlaneHead=0;swimlaneBody=0;fillColor=none;collapsible=0;dropTarget=0;points=[[0,0.5],[1,0.5]];portConstraint=eastwest;top=0;left=0;right=0;bottom=1;" parent="DN535PrDPL4g8HGj7ArQ-39" vertex="1">
          <mxGeometry y="30" width="180" height="30" as="geometry" />
        </mxCell>
        <mxCell id="DN535PrDPL4g8HGj7ArQ-41" value="PK" style="shape=partialRectangle;connectable=0;fillColor=none;top=0;left=0;bottom=0;right=0;fontStyle=1;overflow=hidden;whiteSpace=wrap;html=1;" parent="DN535PrDPL4g8HGj7ArQ-40" vertex="1">
          <mxGeometry width="30" height="30" as="geometry">
            <mxRectangle width="30" height="30" as="alternateBounds" />
          </mxGeometry>
        </mxCell>
        <mxCell id="DN535PrDPL4g8HGj7ArQ-42" value="id: int" style="shape=partialRectangle;connectable=0;fillColor=none;top=0;left=0;bottom=0;right=0;align=left;spacingLeft=6;fontStyle=5;overflow=hidden;whiteSpace=wrap;html=1;" parent="DN535PrDPL4g8HGj7ArQ-40" vertex="1">
          <mxGeometry x="30" width="150" height="30" as="geometry">
            <mxRectangle width="150" height="30" as="alternateBounds" />
          </mxGeometry>
        </mxCell>
        <mxCell id="DN535PrDPL4g8HGj7ArQ-52" value="" style="shape=tableRow;horizontal=0;startSize=0;swimlaneHead=0;swimlaneBody=0;fillColor=none;collapsible=0;dropTarget=0;points=[[0,0.5],[1,0.5]];portConstraint=eastwest;top=0;left=0;right=0;bottom=0;" parent="DN535PrDPL4g8HGj7ArQ-39" vertex="1">
          <mxGeometry y="60" width="180" height="30" as="geometry" />
        </mxCell>
        <mxCell id="DN535PrDPL4g8HGj7ArQ-53" value="FK" style="shape=partialRectangle;connectable=0;fillColor=none;top=0;left=0;bottom=0;right=0;editable=1;overflow=hidden;whiteSpace=wrap;html=1;" parent="DN535PrDPL4g8HGj7ArQ-52" vertex="1">
          <mxGeometry width="30" height="30" as="geometry">
            <mxRectangle width="30" height="30" as="alternateBounds" />
          </mxGeometry>
        </mxCell>
        <mxCell id="DN535PrDPL4g8HGj7ArQ-54" value="post_id : int" style="shape=partialRectangle;connectable=0;fillColor=none;top=0;left=0;bottom=0;right=0;align=left;spacingLeft=6;overflow=hidden;whiteSpace=wrap;html=1;" parent="DN535PrDPL4g8HGj7ArQ-52" vertex="1">
          <mxGeometry x="30" width="150" height="30" as="geometry">
            <mxRectangle width="150" height="30" as="alternateBounds" />
          </mxGeometry>
        </mxCell>
        <mxCell id="DN535PrDPL4g8HGj7ArQ-55" value="" style="shape=tableRow;horizontal=0;startSize=0;swimlaneHead=0;swimlaneBody=0;fillColor=none;collapsible=0;dropTarget=0;points=[[0,0.5],[1,0.5]];portConstraint=eastwest;top=0;left=0;right=0;bottom=0;" parent="DN535PrDPL4g8HGj7ArQ-39" vertex="1">
          <mxGeometry y="90" width="180" height="30" as="geometry" />
        </mxCell>
        <mxCell id="DN535PrDPL4g8HGj7ArQ-56" value="FK" style="shape=partialRectangle;connectable=0;fillColor=none;top=0;left=0;bottom=0;right=0;editable=1;overflow=hidden;whiteSpace=wrap;html=1;" parent="DN535PrDPL4g8HGj7ArQ-55" vertex="1">
          <mxGeometry width="30" height="30" as="geometry">
            <mxRectangle width="30" height="30" as="alternateBounds" />
          </mxGeometry>
        </mxCell>
        <mxCell id="DN535PrDPL4g8HGj7ArQ-57" value="auth_id : int" style="shape=partialRectangle;connectable=0;fillColor=none;top=0;left=0;bottom=0;right=0;align=left;spacingLeft=6;overflow=hidden;whiteSpace=wrap;html=1;" parent="DN535PrDPL4g8HGj7ArQ-55" vertex="1">
          <mxGeometry x="30" width="150" height="30" as="geometry">
            <mxRectangle width="150" height="30" as="alternateBounds" />
          </mxGeometry>
        </mxCell>
        <mxCell id="DN535PrDPL4g8HGj7ArQ-58" style="edgeStyle=orthogonalEdgeStyle;rounded=0;orthogonalLoop=1;jettySize=auto;html=1;entryX=0;entryY=0.5;entryDx=0;entryDy=0;fillColor=#FF483B;strokeColor=#FF3030;exitX=0.002;exitY=0.706;exitDx=0;exitDy=0;exitPerimeter=0;" parent="1" source="DN535PrDPL4g8HGj7ArQ-52" target="gIYqlTLOI5B5svs59ngF-52" edge="1">
          <mxGeometry relative="1" as="geometry">
            <mxPoint x="472" y="1030" as="sourcePoint" />
            <mxPoint x="470" y="635" as="targetPoint" />
            <Array as="points">
              <mxPoint x="498" y="970" />
              <mxPoint x="470" y="970" />
              <mxPoint x="470" y="635" />
            </Array>
          </mxGeometry>
        </mxCell>
        <mxCell id="DN535PrDPL4g8HGj7ArQ-59" style="edgeStyle=orthogonalEdgeStyle;rounded=0;orthogonalLoop=1;jettySize=auto;html=1;exitX=0;exitY=0.5;exitDx=0;exitDy=0;entryX=1;entryY=0.5;entryDx=0;entryDy=0;fillColor=#FF0505;strokeColor=#FF2E2E;" parent="1" source="DN535PrDPL4g8HGj7ArQ-55" target="gIYqlTLOI5B5svs59ngF-3" edge="1">
          <mxGeometry relative="1" as="geometry">
            <Array as="points">
              <mxPoint x="440" y="995" />
              <mxPoint x="440" y="615" />
            </Array>
          </mxGeometry>
        </mxCell>
        <mxCell id="DN535PrDPL4g8HGj7ArQ-60" value="author" style="shape=table;startSize=30;container=1;collapsible=1;childLayout=tableLayout;fixedRows=1;rowLines=0;fontStyle=1;align=center;resizeLast=1;html=1;" parent="1" vertex="1">
          <mxGeometry x="163" y="850" width="217" height="270" as="geometry" />
        </mxCell>
        <mxCell id="DN535PrDPL4g8HGj7ArQ-61" value="" style="shape=tableRow;horizontal=0;startSize=0;swimlaneHead=0;swimlaneBody=0;fillColor=none;collapsible=0;dropTarget=0;points=[[0,0.5],[1,0.5]];portConstraint=eastwest;top=0;left=0;right=0;bottom=1;" parent="DN535PrDPL4g8HGj7ArQ-60" vertex="1">
          <mxGeometry y="30" width="217" height="30" as="geometry" />
        </mxCell>
        <mxCell id="DN535PrDPL4g8HGj7ArQ-62" value="PK" style="shape=partialRectangle;connectable=0;fillColor=none;top=0;left=0;bottom=0;right=0;fontStyle=1;overflow=hidden;whiteSpace=wrap;html=1;" parent="DN535PrDPL4g8HGj7ArQ-61" vertex="1">
          <mxGeometry width="30" height="30" as="geometry">
            <mxRectangle width="30" height="30" as="alternateBounds" />
          </mxGeometry>
        </mxCell>
        <mxCell id="DN535PrDPL4g8HGj7ArQ-63" value="id: int" style="shape=partialRectangle;connectable=0;fillColor=none;top=0;left=0;bottom=0;right=0;align=left;spacingLeft=6;fontStyle=5;overflow=hidden;whiteSpace=wrap;html=1;" parent="DN535PrDPL4g8HGj7ArQ-61" vertex="1">
          <mxGeometry x="30" width="187" height="30" as="geometry">
            <mxRectangle width="187" height="30" as="alternateBounds" />
          </mxGeometry>
        </mxCell>
        <mxCell id="DN535PrDPL4g8HGj7ArQ-64" value="" style="shape=tableRow;horizontal=0;startSize=0;swimlaneHead=0;swimlaneBody=0;fillColor=none;collapsible=0;dropTarget=0;points=[[0,0.5],[1,0.5]];portConstraint=eastwest;top=0;left=0;right=0;bottom=0;" parent="DN535PrDPL4g8HGj7ArQ-60" vertex="1">
          <mxGeometry y="60" width="217" height="30" as="geometry" />
        </mxCell>
        <mxCell id="DN535PrDPL4g8HGj7ArQ-65" value="" style="shape=partialRectangle;connectable=0;fillColor=none;top=0;left=0;bottom=0;right=0;editable=1;overflow=hidden;whiteSpace=wrap;html=1;" parent="DN535PrDPL4g8HGj7ArQ-64" vertex="1">
          <mxGeometry width="30" height="30" as="geometry">
            <mxRectangle width="30" height="30" as="alternateBounds" />
          </mxGeometry>
        </mxCell>
        <mxCell id="DN535PrDPL4g8HGj7ArQ-66" value="county : varchar(255)" style="shape=partialRectangle;connectable=0;fillColor=none;top=0;left=0;bottom=0;right=0;align=left;spacingLeft=6;overflow=hidden;whiteSpace=wrap;html=1;" parent="DN535PrDPL4g8HGj7ArQ-64" vertex="1">
          <mxGeometry x="30" width="187" height="30" as="geometry">
            <mxRectangle width="187" height="30" as="alternateBounds" />
          </mxGeometry>
        </mxCell>
        <mxCell id="DN535PrDPL4g8HGj7ArQ-67" value="" style="shape=tableRow;horizontal=0;startSize=0;swimlaneHead=0;swimlaneBody=0;fillColor=none;collapsible=0;dropTarget=0;points=[[0,0.5],[1,0.5]];portConstraint=eastwest;top=0;left=0;right=0;bottom=0;" parent="DN535PrDPL4g8HGj7ArQ-60" vertex="1">
          <mxGeometry y="90" width="217" height="30" as="geometry" />
        </mxCell>
        <mxCell id="DN535PrDPL4g8HGj7ArQ-68" value="" style="shape=partialRectangle;connectable=0;fillColor=none;top=0;left=0;bottom=0;right=0;editable=1;overflow=hidden;whiteSpace=wrap;html=1;" parent="DN535PrDPL4g8HGj7ArQ-67" vertex="1">
          <mxGeometry width="30" height="30" as="geometry">
            <mxRectangle width="30" height="30" as="alternateBounds" />
          </mxGeometry>
        </mxCell>
        <mxCell id="DN535PrDPL4g8HGj7ArQ-69" value="stete : varchar(255)" style="shape=partialRectangle;connectable=0;fillColor=none;top=0;left=0;bottom=0;right=0;align=left;spacingLeft=6;overflow=hidden;whiteSpace=wrap;html=1;" parent="DN535PrDPL4g8HGj7ArQ-67" vertex="1">
          <mxGeometry x="30" width="187" height="30" as="geometry">
            <mxRectangle width="187" height="30" as="alternateBounds" />
          </mxGeometry>
        </mxCell>
        <mxCell id="DN535PrDPL4g8HGj7ArQ-70" value="" style="shape=tableRow;horizontal=0;startSize=0;swimlaneHead=0;swimlaneBody=0;fillColor=none;collapsible=0;dropTarget=0;points=[[0,0.5],[1,0.5]];portConstraint=eastwest;top=0;left=0;right=0;bottom=0;" parent="DN535PrDPL4g8HGj7ArQ-60" vertex="1">
          <mxGeometry y="120" width="217" height="30" as="geometry" />
        </mxCell>
        <mxCell id="DN535PrDPL4g8HGj7ArQ-71" value="" style="shape=partialRectangle;connectable=0;fillColor=none;top=0;left=0;bottom=0;right=0;editable=1;overflow=hidden;whiteSpace=wrap;html=1;" parent="DN535PrDPL4g8HGj7ArQ-70" vertex="1">
          <mxGeometry width="30" height="30" as="geometry">
            <mxRectangle width="30" height="30" as="alternateBounds" />
          </mxGeometry>
        </mxCell>
        <mxCell id="DN535PrDPL4g8HGj7ArQ-72" value="city : varchar(255)" style="shape=partialRectangle;connectable=0;fillColor=none;top=0;left=0;bottom=0;right=0;align=left;spacingLeft=6;overflow=hidden;whiteSpace=wrap;html=1;" parent="DN535PrDPL4g8HGj7ArQ-70" vertex="1">
          <mxGeometry x="30" width="187" height="30" as="geometry">
            <mxRectangle width="187" height="30" as="alternateBounds" />
          </mxGeometry>
        </mxCell>
        <mxCell id="DN535PrDPL4g8HGj7ArQ-73" value="" style="shape=tableRow;horizontal=0;startSize=0;swimlaneHead=0;swimlaneBody=0;fillColor=none;collapsible=0;dropTarget=0;points=[[0,0.5],[1,0.5]];portConstraint=eastwest;top=0;left=0;right=0;bottom=0;" parent="DN535PrDPL4g8HGj7ArQ-60" vertex="1">
          <mxGeometry y="150" width="217" height="30" as="geometry" />
        </mxCell>
        <mxCell id="DN535PrDPL4g8HGj7ArQ-74" value="" style="shape=partialRectangle;connectable=0;fillColor=none;top=0;left=0;bottom=0;right=0;editable=1;overflow=hidden;whiteSpace=wrap;html=1;" parent="DN535PrDPL4g8HGj7ArQ-73" vertex="1">
          <mxGeometry width="30" height="30" as="geometry">
            <mxRectangle width="30" height="30" as="alternateBounds" />
          </mxGeometry>
        </mxCell>
        <mxCell id="DN535PrDPL4g8HGj7ArQ-75" value="detalis : varchar(255)" style="shape=partialRectangle;connectable=0;fillColor=none;top=0;left=0;bottom=0;right=0;align=left;spacingLeft=6;overflow=hidden;whiteSpace=wrap;html=1;" parent="DN535PrDPL4g8HGj7ArQ-73" vertex="1">
          <mxGeometry x="30" width="187" height="30" as="geometry">
            <mxRectangle width="187" height="30" as="alternateBounds" />
          </mxGeometry>
        </mxCell>
        <mxCell id="DN535PrDPL4g8HGj7ArQ-76" value="" style="shape=tableRow;horizontal=0;startSize=0;swimlaneHead=0;swimlaneBody=0;fillColor=none;collapsible=0;dropTarget=0;points=[[0,0.5],[1,0.5]];portConstraint=eastwest;top=0;left=0;right=0;bottom=0;" parent="DN535PrDPL4g8HGj7ArQ-60" vertex="1">
          <mxGeometry y="180" width="217" height="30" as="geometry" />
        </mxCell>
        <mxCell id="DN535PrDPL4g8HGj7ArQ-77" value="" style="shape=partialRectangle;connectable=0;fillColor=none;top=0;left=0;bottom=0;right=0;editable=1;overflow=hidden;whiteSpace=wrap;html=1;" parent="DN535PrDPL4g8HGj7ArQ-76" vertex="1">
          <mxGeometry width="30" height="30" as="geometry">
            <mxRectangle width="30" height="30" as="alternateBounds" />
          </mxGeometry>
        </mxCell>
        <mxCell id="DN535PrDPL4g8HGj7ArQ-78" value="zip_code : varchar(255)" style="shape=partialRectangle;connectable=0;fillColor=none;top=0;left=0;bottom=0;right=0;align=left;spacingLeft=6;overflow=hidden;whiteSpace=wrap;html=1;" parent="DN535PrDPL4g8HGj7ArQ-76" vertex="1">
          <mxGeometry x="30" width="187" height="30" as="geometry">
            <mxRectangle width="187" height="30" as="alternateBounds" />
          </mxGeometry>
        </mxCell>
        <mxCell id="DN535PrDPL4g8HGj7ArQ-79" value="" style="shape=tableRow;horizontal=0;startSize=0;swimlaneHead=0;swimlaneBody=0;fillColor=none;collapsible=0;dropTarget=0;points=[[0,0.5],[1,0.5]];portConstraint=eastwest;top=0;left=0;right=0;bottom=0;" parent="DN535PrDPL4g8HGj7ArQ-60" vertex="1">
          <mxGeometry y="210" width="217" height="30" as="geometry" />
        </mxCell>
        <mxCell id="DN535PrDPL4g8HGj7ArQ-80" value="" style="shape=partialRectangle;connectable=0;fillColor=none;top=0;left=0;bottom=0;right=0;editable=1;overflow=hidden;whiteSpace=wrap;html=1;" parent="DN535PrDPL4g8HGj7ArQ-79" vertex="1">
          <mxGeometry width="30" height="30" as="geometry">
            <mxRectangle width="30" height="30" as="alternateBounds" />
          </mxGeometry>
        </mxCell>
        <mxCell id="DN535PrDPL4g8HGj7ArQ-81" value="phone_nunber : varchar(255)" style="shape=partialRectangle;connectable=0;fillColor=none;top=0;left=0;bottom=0;right=0;align=left;spacingLeft=6;overflow=hidden;whiteSpace=wrap;html=1;" parent="DN535PrDPL4g8HGj7ArQ-79" vertex="1">
          <mxGeometry x="30" width="187" height="30" as="geometry">
            <mxRectangle width="187" height="30" as="alternateBounds" />
          </mxGeometry>
        </mxCell>
        <mxCell id="DN535PrDPL4g8HGj7ArQ-104" value="" style="shape=tableRow;horizontal=0;startSize=0;swimlaneHead=0;swimlaneBody=0;fillColor=none;collapsible=0;dropTarget=0;points=[[0,0.5],[1,0.5]];portConstraint=eastwest;top=0;left=0;right=0;bottom=0;" parent="DN535PrDPL4g8HGj7ArQ-60" vertex="1">
          <mxGeometry y="240" width="217" height="30" as="geometry" />
        </mxCell>
        <mxCell id="DN535PrDPL4g8HGj7ArQ-105" value="FK" style="shape=partialRectangle;connectable=0;fillColor=none;top=0;left=0;bottom=0;right=0;editable=1;overflow=hidden;whiteSpace=wrap;html=1;" parent="DN535PrDPL4g8HGj7ArQ-104" vertex="1">
          <mxGeometry width="30" height="30" as="geometry">
            <mxRectangle width="30" height="30" as="alternateBounds" />
          </mxGeometry>
        </mxCell>
        <mxCell id="DN535PrDPL4g8HGj7ArQ-106" value="auth_id : int" style="shape=partialRectangle;connectable=0;fillColor=none;top=0;left=0;bottom=0;right=0;align=left;spacingLeft=6;overflow=hidden;whiteSpace=wrap;html=1;" parent="DN535PrDPL4g8HGj7ArQ-104" vertex="1">
          <mxGeometry x="30" width="187" height="30" as="geometry">
            <mxRectangle width="187" height="30" as="alternateBounds" />
          </mxGeometry>
        </mxCell>
        <mxCell id="DN535PrDPL4g8HGj7ArQ-107" style="edgeStyle=orthogonalEdgeStyle;rounded=0;orthogonalLoop=1;jettySize=auto;html=1;exitX=0;exitY=0.5;exitDx=0;exitDy=0;strokeColor=#1808FF;entryX=0;entryY=0.5;entryDx=0;entryDy=0;" parent="1" source="DN535PrDPL4g8HGj7ArQ-104" target="gIYqlTLOI5B5svs59ngF-3" edge="1">
          <mxGeometry relative="1" as="geometry">
            <mxPoint x="350" y="610" as="targetPoint" />
            <Array as="points">
              <mxPoint x="120" y="1105" />
              <mxPoint x="120" y="615" />
            </Array>
          </mxGeometry>
        </mxCell>
        <mxCell id="DN535PrDPL4g8HGj7ArQ-111" value="" style="edgeStyle=entityRelationEdgeStyle;fontSize=12;html=1;endArrow=ERzeroToMany;startArrow=ERzeroToOne;rounded=0;exitX=0.981;exitY=0.983;exitDx=0;exitDy=0;exitPerimeter=0;entryX=-0.005;entryY=0.093;entryDx=0;entryDy=0;entryPerimeter=0;" parent="1" source="gIYqlTLOI5B5svs59ngF-45" target="DN535PrDPL4g8HGj7ArQ-39" edge="1">
          <mxGeometry width="100" height="100" relative="1" as="geometry">
            <mxPoint x="650" y="730" as="sourcePoint" />
            <mxPoint x="750" y="630" as="targetPoint" />
          </mxGeometry>
        </mxCell>
        <mxCell id="DN535PrDPL4g8HGj7ArQ-112" value="" style="edgeStyle=entityRelationEdgeStyle;fontSize=12;html=1;endArrow=ERzeroToMany;startArrow=ERzeroToOne;rounded=0;entryX=0.995;entryY=0.107;entryDx=0;entryDy=0;entryPerimeter=0;exitX=0.995;exitY=0.928;exitDx=0;exitDy=0;exitPerimeter=0;" parent="1" source="gIYqlTLOI5B5svs59ngF-73" target="DN535PrDPL4g8HGj7ArQ-39" edge="1">
          <mxGeometry width="100" height="100" relative="1" as="geometry">
            <mxPoint x="683" y="785" as="sourcePoint" />
            <mxPoint x="508" y="850" as="targetPoint" />
            <Array as="points">
              <mxPoint x="743" y="780" />
              <mxPoint x="683" y="820" />
              <mxPoint x="683" y="830" />
              <mxPoint x="753" y="880" />
              <mxPoint x="713" y="810" />
              <mxPoint x="677" y="800" />
              <mxPoint x="683" y="810" />
              <mxPoint x="677" y="840" />
              <mxPoint x="588" y="790" />
            </Array>
          </mxGeometry>
        </mxCell>
        <mxCell id="DN535PrDPL4g8HGj7ArQ-113" value="" style="edgeStyle=entityRelationEdgeStyle;fontSize=12;html=1;endArrow=ERzeroToOne;endFill=1;rounded=0;" parent="1" target="DN535PrDPL4g8HGj7ArQ-60" edge="1">
          <mxGeometry width="100" height="100" relative="1" as="geometry">
            <mxPoint x="340" y="570" as="sourcePoint" />
            <mxPoint x="72.9959999999999" y="887.42" as="targetPoint" />
            <Array as="points">
              <mxPoint x="84.77000000000001" y="866.34" />
              <mxPoint x="420" y="780" />
              <mxPoint x="54.77000000000001" y="866.34" />
              <mxPoint x="44.77000000000001" y="856.34" />
            </Array>
          </mxGeometry>
        </mxCell>
      </root>
    </mxGraphModel>
  </diagram>
  <diagram id="cWvB9WcnWv_hp5rGz578" name="페이지-2">
    <mxGraphModel dx="1674" dy="772" grid="1" gridSize="10" guides="1" tooltips="1" connect="1" arrows="1" fold="1" page="1" pageScale="1" pageWidth="827" pageHeight="1169" math="0" shadow="0">
      <root>
        <mxCell id="0" />
        <mxCell id="1" parent="0" />
        <mxCell id="s3wD5Ka3jSvJY78mtmWY-1" value="MEMEBERS" style="shape=table;startSize=30;container=1;collapsible=1;childLayout=tableLayout;fixedRows=1;rowLines=0;fontStyle=1;align=center;resizeLast=1;html=1;" vertex="1" parent="1">
          <mxGeometry x="82" y="100" width="250" height="180" as="geometry" />
        </mxCell>
        <mxCell id="s3wD5Ka3jSvJY78mtmWY-2" value="" style="shape=tableRow;horizontal=0;startSize=0;swimlaneHead=0;swimlaneBody=0;fillColor=none;collapsible=0;dropTarget=0;points=[[0,0.5],[1,0.5]];portConstraint=eastwest;top=0;left=0;right=0;bottom=1;" vertex="1" parent="s3wD5Ka3jSvJY78mtmWY-1">
          <mxGeometry y="30" width="250" height="30" as="geometry" />
        </mxCell>
        <mxCell id="s3wD5Ka3jSvJY78mtmWY-3" value="PK" style="shape=partialRectangle;connectable=0;fillColor=none;top=0;left=0;bottom=0;right=0;fontStyle=1;overflow=hidden;whiteSpace=wrap;html=1;" vertex="1" parent="s3wD5Ka3jSvJY78mtmWY-2">
          <mxGeometry width="30" height="30" as="geometry">
            <mxRectangle width="30" height="30" as="alternateBounds" />
          </mxGeometry>
        </mxCell>
        <mxCell id="s3wD5Ka3jSvJY78mtmWY-4" value="MEMEBERS_id&amp;nbsp; : BIGINT&amp;nbsp;" style="shape=partialRectangle;connectable=0;fillColor=none;top=0;left=0;bottom=0;right=0;align=left;spacingLeft=6;fontStyle=5;overflow=hidden;whiteSpace=wrap;html=1;" vertex="1" parent="s3wD5Ka3jSvJY78mtmWY-2">
          <mxGeometry x="30" width="220" height="30" as="geometry">
            <mxRectangle width="220" height="30" as="alternateBounds" />
          </mxGeometry>
        </mxCell>
        <mxCell id="s3wD5Ka3jSvJY78mtmWY-5" value="" style="shape=tableRow;horizontal=0;startSize=0;swimlaneHead=0;swimlaneBody=0;fillColor=none;collapsible=0;dropTarget=0;points=[[0,0.5],[1,0.5]];portConstraint=eastwest;top=0;left=0;right=0;bottom=0;" vertex="1" parent="s3wD5Ka3jSvJY78mtmWY-1">
          <mxGeometry y="60" width="250" height="30" as="geometry" />
        </mxCell>
        <mxCell id="s3wD5Ka3jSvJY78mtmWY-6" value="" style="shape=partialRectangle;connectable=0;fillColor=none;top=0;left=0;bottom=0;right=0;editable=1;overflow=hidden;whiteSpace=wrap;html=1;" vertex="1" parent="s3wD5Ka3jSvJY78mtmWY-5">
          <mxGeometry width="30" height="30" as="geometry">
            <mxRectangle width="30" height="30" as="alternateBounds" />
          </mxGeometry>
        </mxCell>
        <mxCell id="s3wD5Ka3jSvJY78mtmWY-7" value="MEMEBERS_role : enum" style="shape=partialRectangle;connectable=0;fillColor=none;top=0;left=0;bottom=0;right=0;align=left;spacingLeft=6;overflow=hidden;whiteSpace=wrap;html=1;" vertex="1" parent="s3wD5Ka3jSvJY78mtmWY-5">
          <mxGeometry x="30" width="220" height="30" as="geometry">
            <mxRectangle width="220" height="30" as="alternateBounds" />
          </mxGeometry>
        </mxCell>
        <mxCell id="s3wD5Ka3jSvJY78mtmWY-8" value="" style="shape=tableRow;horizontal=0;startSize=0;swimlaneHead=0;swimlaneBody=0;fillColor=none;collapsible=0;dropTarget=0;points=[[0,0.5],[1,0.5]];portConstraint=eastwest;top=0;left=0;right=0;bottom=0;" vertex="1" parent="s3wD5Ka3jSvJY78mtmWY-1">
          <mxGeometry y="90" width="250" height="30" as="geometry" />
        </mxCell>
        <mxCell id="s3wD5Ka3jSvJY78mtmWY-9" value="" style="shape=partialRectangle;connectable=0;fillColor=none;top=0;left=0;bottom=0;right=0;editable=1;overflow=hidden;whiteSpace=wrap;html=1;" vertex="1" parent="s3wD5Ka3jSvJY78mtmWY-8">
          <mxGeometry width="30" height="30" as="geometry">
            <mxRectangle width="30" height="30" as="alternateBounds" />
          </mxGeometry>
        </mxCell>
        <mxCell id="s3wD5Ka3jSvJY78mtmWY-10" value="MEMEBERS_NAME : varchar(255)" style="shape=partialRectangle;connectable=0;fillColor=none;top=0;left=0;bottom=0;right=0;align=left;spacingLeft=6;overflow=hidden;whiteSpace=wrap;html=1;strokeColor=#FFFFFF;" vertex="1" parent="s3wD5Ka3jSvJY78mtmWY-8">
          <mxGeometry x="30" width="220" height="30" as="geometry">
            <mxRectangle width="220" height="30" as="alternateBounds" />
          </mxGeometry>
        </mxCell>
        <mxCell id="s3wD5Ka3jSvJY78mtmWY-11" value="" style="shape=tableRow;horizontal=0;startSize=0;swimlaneHead=0;swimlaneBody=0;fillColor=none;collapsible=0;dropTarget=0;points=[[0,0.5],[1,0.5]];portConstraint=eastwest;top=0;left=0;right=0;bottom=0;" vertex="1" parent="s3wD5Ka3jSvJY78mtmWY-1">
          <mxGeometry y="120" width="250" height="30" as="geometry" />
        </mxCell>
        <mxCell id="s3wD5Ka3jSvJY78mtmWY-12" value="" style="shape=partialRectangle;connectable=0;fillColor=none;top=0;left=0;bottom=0;right=0;editable=1;overflow=hidden;whiteSpace=wrap;html=1;" vertex="1" parent="s3wD5Ka3jSvJY78mtmWY-11">
          <mxGeometry width="30" height="30" as="geometry">
            <mxRectangle width="30" height="30" as="alternateBounds" />
          </mxGeometry>
        </mxCell>
        <mxCell id="s3wD5Ka3jSvJY78mtmWY-13" value="MEMEBERS_PHONE : varchar(255)" style="shape=partialRectangle;connectable=0;fillColor=none;top=0;left=0;bottom=0;right=0;align=left;spacingLeft=6;overflow=hidden;whiteSpace=wrap;html=1;" vertex="1" parent="s3wD5Ka3jSvJY78mtmWY-11">
          <mxGeometry x="30" width="220" height="30" as="geometry">
            <mxRectangle width="220" height="30" as="alternateBounds" />
          </mxGeometry>
        </mxCell>
        <mxCell id="s3wD5Ka3jSvJY78mtmWY-14" value="" style="shape=tableRow;horizontal=0;startSize=0;swimlaneHead=0;swimlaneBody=0;fillColor=none;collapsible=0;dropTarget=0;points=[[0,0.5],[1,0.5]];portConstraint=eastwest;top=0;left=0;right=0;bottom=0;" vertex="1" parent="s3wD5Ka3jSvJY78mtmWY-1">
          <mxGeometry y="150" width="250" height="30" as="geometry" />
        </mxCell>
        <mxCell id="s3wD5Ka3jSvJY78mtmWY-15" value="" style="shape=partialRectangle;connectable=0;fillColor=none;top=0;left=0;bottom=0;right=0;editable=1;overflow=hidden;whiteSpace=wrap;html=1;" vertex="1" parent="s3wD5Ka3jSvJY78mtmWY-14">
          <mxGeometry width="30" height="30" as="geometry">
            <mxRectangle width="30" height="30" as="alternateBounds" />
          </mxGeometry>
        </mxCell>
        <mxCell id="s3wD5Ka3jSvJY78mtmWY-16" value="MEMEBERS_EMAIL : varchar(255)" style="shape=partialRectangle;connectable=0;fillColor=none;top=0;left=0;bottom=0;right=0;align=left;spacingLeft=6;overflow=hidden;whiteSpace=wrap;html=1;" vertex="1" parent="s3wD5Ka3jSvJY78mtmWY-14">
          <mxGeometry x="30" width="220" height="30" as="geometry">
            <mxRectangle width="220" height="30" as="alternateBounds" />
          </mxGeometry>
        </mxCell>
        <mxCell id="lI5NkBWsjLsQJ3-CtALw-1" value="ITEMS" style="shape=table;startSize=30;container=1;collapsible=1;childLayout=tableLayout;fixedRows=1;rowLines=0;fontStyle=1;align=center;resizeLast=1;html=1;" vertex="1" parent="1">
          <mxGeometry x="82" y="370" width="250" height="180" as="geometry" />
        </mxCell>
        <mxCell id="lI5NkBWsjLsQJ3-CtALw-2" value="" style="shape=tableRow;horizontal=0;startSize=0;swimlaneHead=0;swimlaneBody=0;fillColor=none;collapsible=0;dropTarget=0;points=[[0,0.5],[1,0.5]];portConstraint=eastwest;top=0;left=0;right=0;bottom=1;" vertex="1" parent="lI5NkBWsjLsQJ3-CtALw-1">
          <mxGeometry y="30" width="250" height="30" as="geometry" />
        </mxCell>
        <mxCell id="lI5NkBWsjLsQJ3-CtALw-3" value="PK" style="shape=partialRectangle;connectable=0;fillColor=none;top=0;left=0;bottom=0;right=0;fontStyle=1;overflow=hidden;whiteSpace=wrap;html=1;" vertex="1" parent="lI5NkBWsjLsQJ3-CtALw-2">
          <mxGeometry width="30" height="30" as="geometry">
            <mxRectangle width="30" height="30" as="alternateBounds" />
          </mxGeometry>
        </mxCell>
        <mxCell id="lI5NkBWsjLsQJ3-CtALw-4" value="ITEMS_id&lt;span style=&quot;background-color: initial;&quot;&gt;&amp;nbsp; : BIGINT&amp;nbsp;&lt;/span&gt;" style="shape=partialRectangle;connectable=0;fillColor=none;top=0;left=0;bottom=0;right=0;align=left;spacingLeft=6;fontStyle=5;overflow=hidden;whiteSpace=wrap;html=1;" vertex="1" parent="lI5NkBWsjLsQJ3-CtALw-2">
          <mxGeometry x="30" width="220" height="30" as="geometry">
            <mxRectangle width="220" height="30" as="alternateBounds" />
          </mxGeometry>
        </mxCell>
        <mxCell id="lI5NkBWsjLsQJ3-CtALw-5" value="" style="shape=tableRow;horizontal=0;startSize=0;swimlaneHead=0;swimlaneBody=0;fillColor=none;collapsible=0;dropTarget=0;points=[[0,0.5],[1,0.5]];portConstraint=eastwest;top=0;left=0;right=0;bottom=0;" vertex="1" parent="lI5NkBWsjLsQJ3-CtALw-1">
          <mxGeometry y="60" width="250" height="30" as="geometry" />
        </mxCell>
        <mxCell id="lI5NkBWsjLsQJ3-CtALw-6" value="" style="shape=partialRectangle;connectable=0;fillColor=none;top=0;left=0;bottom=0;right=0;editable=1;overflow=hidden;whiteSpace=wrap;html=1;" vertex="1" parent="lI5NkBWsjLsQJ3-CtALw-5">
          <mxGeometry width="30" height="30" as="geometry">
            <mxRectangle width="30" height="30" as="alternateBounds" />
          </mxGeometry>
        </mxCell>
        <mxCell id="lI5NkBWsjLsQJ3-CtALw-7" value="ITEMS_NAME : varchar(255)" style="shape=partialRectangle;connectable=0;fillColor=none;top=0;left=0;bottom=0;right=0;align=left;spacingLeft=6;overflow=hidden;whiteSpace=wrap;html=1;" vertex="1" parent="lI5NkBWsjLsQJ3-CtALw-5">
          <mxGeometry x="30" width="220" height="30" as="geometry">
            <mxRectangle width="220" height="30" as="alternateBounds" />
          </mxGeometry>
        </mxCell>
        <mxCell id="lI5NkBWsjLsQJ3-CtALw-8" value="" style="shape=tableRow;horizontal=0;startSize=0;swimlaneHead=0;swimlaneBody=0;fillColor=none;collapsible=0;dropTarget=0;points=[[0,0.5],[1,0.5]];portConstraint=eastwest;top=0;left=0;right=0;bottom=0;" vertex="1" parent="lI5NkBWsjLsQJ3-CtALw-1">
          <mxGeometry y="90" width="250" height="30" as="geometry" />
        </mxCell>
        <mxCell id="lI5NkBWsjLsQJ3-CtALw-9" value="" style="shape=partialRectangle;connectable=0;fillColor=none;top=0;left=0;bottom=0;right=0;editable=1;overflow=hidden;whiteSpace=wrap;html=1;" vertex="1" parent="lI5NkBWsjLsQJ3-CtALw-8">
          <mxGeometry width="30" height="30" as="geometry">
            <mxRectangle width="30" height="30" as="alternateBounds" />
          </mxGeometry>
        </mxCell>
        <mxCell id="lI5NkBWsjLsQJ3-CtALw-10" value="ITEMS_PRICE&lt;span style=&quot;background-color: initial;&quot;&gt;&amp;nbsp;: varchar(255)&lt;/span&gt;" style="shape=partialRectangle;connectable=0;fillColor=none;top=0;left=0;bottom=0;right=0;align=left;spacingLeft=6;overflow=hidden;whiteSpace=wrap;html=1;strokeColor=#FFFFFF;" vertex="1" parent="lI5NkBWsjLsQJ3-CtALw-8">
          <mxGeometry x="30" width="220" height="30" as="geometry">
            <mxRectangle width="220" height="30" as="alternateBounds" />
          </mxGeometry>
        </mxCell>
        <mxCell id="lI5NkBWsjLsQJ3-CtALw-11" value="" style="shape=tableRow;horizontal=0;startSize=0;swimlaneHead=0;swimlaneBody=0;fillColor=none;collapsible=0;dropTarget=0;points=[[0,0.5],[1,0.5]];portConstraint=eastwest;top=0;left=0;right=0;bottom=0;" vertex="1" parent="lI5NkBWsjLsQJ3-CtALw-1">
          <mxGeometry y="120" width="250" height="30" as="geometry" />
        </mxCell>
        <mxCell id="lI5NkBWsjLsQJ3-CtALw-12" value="" style="shape=partialRectangle;connectable=0;fillColor=none;top=0;left=0;bottom=0;right=0;editable=1;overflow=hidden;whiteSpace=wrap;html=1;" vertex="1" parent="lI5NkBWsjLsQJ3-CtALw-11">
          <mxGeometry width="30" height="30" as="geometry">
            <mxRectangle width="30" height="30" as="alternateBounds" />
          </mxGeometry>
        </mxCell>
        <mxCell id="lI5NkBWsjLsQJ3-CtALw-13" value="ITEMS_COUNT&lt;span style=&quot;background-color: initial;&quot;&gt;&amp;nbsp;: INT&lt;/span&gt;" style="shape=partialRectangle;connectable=0;fillColor=none;top=0;left=0;bottom=0;right=0;align=left;spacingLeft=6;overflow=hidden;whiteSpace=wrap;html=1;" vertex="1" parent="lI5NkBWsjLsQJ3-CtALw-11">
          <mxGeometry x="30" width="220" height="30" as="geometry">
            <mxRectangle width="220" height="30" as="alternateBounds" />
          </mxGeometry>
        </mxCell>
        <mxCell id="lI5NkBWsjLsQJ3-CtALw-14" value="" style="shape=tableRow;horizontal=0;startSize=0;swimlaneHead=0;swimlaneBody=0;fillColor=none;collapsible=0;dropTarget=0;points=[[0,0.5],[1,0.5]];portConstraint=eastwest;top=0;left=0;right=0;bottom=0;" vertex="1" parent="lI5NkBWsjLsQJ3-CtALw-1">
          <mxGeometry y="150" width="250" height="30" as="geometry" />
        </mxCell>
        <mxCell id="lI5NkBWsjLsQJ3-CtALw-15" value="FK" style="shape=partialRectangle;connectable=0;fillColor=none;top=0;left=0;bottom=0;right=0;editable=1;overflow=hidden;whiteSpace=wrap;html=1;" vertex="1" parent="lI5NkBWsjLsQJ3-CtALw-14">
          <mxGeometry width="30" height="30" as="geometry">
            <mxRectangle width="30" height="30" as="alternateBounds" />
          </mxGeometry>
        </mxCell>
        <mxCell id="lI5NkBWsjLsQJ3-CtALw-16" value="SELLER_id : BIGINT&amp;nbsp;" style="shape=partialRectangle;connectable=0;fillColor=none;top=0;left=0;bottom=0;right=0;align=left;spacingLeft=6;overflow=hidden;whiteSpace=wrap;html=1;" vertex="1" parent="lI5NkBWsjLsQJ3-CtALw-14">
          <mxGeometry x="30" width="220" height="30" as="geometry">
            <mxRectangle width="220" height="30" as="alternateBounds" />
          </mxGeometry>
        </mxCell>
        <mxCell id="lI5NkBWsjLsQJ3-CtALw-20" value="ORDERS" style="shape=table;startSize=30;container=1;collapsible=1;childLayout=tableLayout;fixedRows=1;rowLines=0;fontStyle=1;align=center;resizeLast=1;html=1;" vertex="1" parent="1">
          <mxGeometry x="460" y="100" width="250" height="150" as="geometry" />
        </mxCell>
        <mxCell id="lI5NkBWsjLsQJ3-CtALw-21" value="" style="shape=tableRow;horizontal=0;startSize=0;swimlaneHead=0;swimlaneBody=0;fillColor=none;collapsible=0;dropTarget=0;points=[[0,0.5],[1,0.5]];portConstraint=eastwest;top=0;left=0;right=0;bottom=1;" vertex="1" parent="lI5NkBWsjLsQJ3-CtALw-20">
          <mxGeometry y="30" width="250" height="30" as="geometry" />
        </mxCell>
        <mxCell id="lI5NkBWsjLsQJ3-CtALw-22" value="PK" style="shape=partialRectangle;connectable=0;fillColor=none;top=0;left=0;bottom=0;right=0;fontStyle=1;overflow=hidden;whiteSpace=wrap;html=1;" vertex="1" parent="lI5NkBWsjLsQJ3-CtALw-21">
          <mxGeometry width="30" height="30" as="geometry">
            <mxRectangle width="30" height="30" as="alternateBounds" />
          </mxGeometry>
        </mxCell>
        <mxCell id="lI5NkBWsjLsQJ3-CtALw-23" value="ORDER_id&lt;span style=&quot;background-color: initial;&quot;&gt;&amp;nbsp;: BIGINT&amp;nbsp;&lt;/span&gt;" style="shape=partialRectangle;connectable=0;fillColor=none;top=0;left=0;bottom=0;right=0;align=left;spacingLeft=6;fontStyle=5;overflow=hidden;whiteSpace=wrap;html=1;" vertex="1" parent="lI5NkBWsjLsQJ3-CtALw-21">
          <mxGeometry x="30" width="220" height="30" as="geometry">
            <mxRectangle width="220" height="30" as="alternateBounds" />
          </mxGeometry>
        </mxCell>
        <mxCell id="lI5NkBWsjLsQJ3-CtALw-24" value="" style="shape=tableRow;horizontal=0;startSize=0;swimlaneHead=0;swimlaneBody=0;fillColor=none;collapsible=0;dropTarget=0;points=[[0,0.5],[1,0.5]];portConstraint=eastwest;top=0;left=0;right=0;bottom=0;" vertex="1" parent="lI5NkBWsjLsQJ3-CtALw-20">
          <mxGeometry y="60" width="250" height="30" as="geometry" />
        </mxCell>
        <mxCell id="lI5NkBWsjLsQJ3-CtALw-25" value="FK&lt;span style=&quot;white-space: pre;&quot;&gt;&#x9;&lt;/span&gt;" style="shape=partialRectangle;connectable=0;fillColor=none;top=0;left=0;bottom=0;right=0;editable=1;overflow=hidden;whiteSpace=wrap;html=1;" vertex="1" parent="lI5NkBWsjLsQJ3-CtALw-24">
          <mxGeometry width="30" height="30" as="geometry">
            <mxRectangle width="30" height="30" as="alternateBounds" />
          </mxGeometry>
        </mxCell>
        <mxCell id="lI5NkBWsjLsQJ3-CtALw-26" value="USER_id : BIGINT" style="shape=partialRectangle;connectable=0;fillColor=none;top=0;left=0;bottom=0;right=0;align=left;spacingLeft=6;overflow=hidden;whiteSpace=wrap;html=1;" vertex="1" parent="lI5NkBWsjLsQJ3-CtALw-24">
          <mxGeometry x="30" width="220" height="30" as="geometry">
            <mxRectangle width="220" height="30" as="alternateBounds" />
          </mxGeometry>
        </mxCell>
        <mxCell id="lI5NkBWsjLsQJ3-CtALw-27" value="" style="shape=tableRow;horizontal=0;startSize=0;swimlaneHead=0;swimlaneBody=0;fillColor=none;collapsible=0;dropTarget=0;points=[[0,0.5],[1,0.5]];portConstraint=eastwest;top=0;left=0;right=0;bottom=0;" vertex="1" parent="lI5NkBWsjLsQJ3-CtALw-20">
          <mxGeometry y="90" width="250" height="30" as="geometry" />
        </mxCell>
        <mxCell id="lI5NkBWsjLsQJ3-CtALw-28" value="FK" style="shape=partialRectangle;connectable=0;fillColor=none;top=0;left=0;bottom=0;right=0;editable=1;overflow=hidden;whiteSpace=wrap;html=1;" vertex="1" parent="lI5NkBWsjLsQJ3-CtALw-27">
          <mxGeometry width="30" height="30" as="geometry">
            <mxRectangle width="30" height="30" as="alternateBounds" />
          </mxGeometry>
        </mxCell>
        <mxCell id="lI5NkBWsjLsQJ3-CtALw-29" value="MEMEBERS_ADDRESS_id&lt;span style=&quot;background-color: initial;&quot;&gt;: BIGINT&lt;/span&gt;" style="shape=partialRectangle;connectable=0;fillColor=none;top=0;left=0;bottom=0;right=0;align=left;spacingLeft=6;overflow=hidden;whiteSpace=wrap;html=1;strokeColor=#FFFFFF;" vertex="1" parent="lI5NkBWsjLsQJ3-CtALw-27">
          <mxGeometry x="30" width="220" height="30" as="geometry">
            <mxRectangle width="220" height="30" as="alternateBounds" />
          </mxGeometry>
        </mxCell>
        <mxCell id="lI5NkBWsjLsQJ3-CtALw-30" value="" style="shape=tableRow;horizontal=0;startSize=0;swimlaneHead=0;swimlaneBody=0;fillColor=none;collapsible=0;dropTarget=0;points=[[0,0.5],[1,0.5]];portConstraint=eastwest;top=0;left=0;right=0;bottom=0;" vertex="1" parent="lI5NkBWsjLsQJ3-CtALw-20">
          <mxGeometry y="120" width="250" height="30" as="geometry" />
        </mxCell>
        <mxCell id="lI5NkBWsjLsQJ3-CtALw-31" value="" style="shape=partialRectangle;connectable=0;fillColor=none;top=0;left=0;bottom=0;right=0;editable=1;overflow=hidden;whiteSpace=wrap;html=1;" vertex="1" parent="lI5NkBWsjLsQJ3-CtALw-30">
          <mxGeometry width="30" height="30" as="geometry">
            <mxRectangle width="30" height="30" as="alternateBounds" />
          </mxGeometry>
        </mxCell>
        <mxCell id="lI5NkBWsjLsQJ3-CtALw-32" value="ORDERS_Progress" style="shape=partialRectangle;connectable=0;fillColor=none;top=0;left=0;bottom=0;right=0;align=left;spacingLeft=6;overflow=hidden;whiteSpace=wrap;html=1;" vertex="1" parent="lI5NkBWsjLsQJ3-CtALw-30">
          <mxGeometry x="30" width="220" height="30" as="geometry">
            <mxRectangle width="220" height="30" as="alternateBounds" />
          </mxGeometry>
        </mxCell>
        <mxCell id="lI5NkBWsjLsQJ3-CtALw-36" value="ORDER_DETAILS" style="shape=table;startSize=30;container=1;collapsible=1;childLayout=tableLayout;fixedRows=1;rowLines=0;fontStyle=1;align=center;resizeLast=1;html=1;" vertex="1" parent="1">
          <mxGeometry x="470" y="370" width="300" height="150" as="geometry" />
        </mxCell>
        <mxCell id="lI5NkBWsjLsQJ3-CtALw-37" value="" style="shape=tableRow;horizontal=0;startSize=0;swimlaneHead=0;swimlaneBody=0;fillColor=none;collapsible=0;dropTarget=0;points=[[0,0.5],[1,0.5]];portConstraint=eastwest;top=0;left=0;right=0;bottom=1;" vertex="1" parent="lI5NkBWsjLsQJ3-CtALw-36">
          <mxGeometry y="30" width="300" height="30" as="geometry" />
        </mxCell>
        <mxCell id="lI5NkBWsjLsQJ3-CtALw-38" value="PK" style="shape=partialRectangle;connectable=0;fillColor=none;top=0;left=0;bottom=0;right=0;fontStyle=1;overflow=hidden;whiteSpace=wrap;html=1;" vertex="1" parent="lI5NkBWsjLsQJ3-CtALw-37">
          <mxGeometry width="30" height="30" as="geometry">
            <mxRectangle width="30" height="30" as="alternateBounds" />
          </mxGeometry>
        </mxCell>
        <mxCell id="lI5NkBWsjLsQJ3-CtALw-39" value="ORDER_DETAILS_id&lt;span style=&quot;background-color: initial;&quot;&gt;&amp;nbsp;: BIGINT&amp;nbsp;&lt;/span&gt;" style="shape=partialRectangle;connectable=0;fillColor=none;top=0;left=0;bottom=0;right=0;align=left;spacingLeft=6;fontStyle=5;overflow=hidden;whiteSpace=wrap;html=1;" vertex="1" parent="lI5NkBWsjLsQJ3-CtALw-37">
          <mxGeometry x="30" width="270" height="30" as="geometry">
            <mxRectangle width="270" height="30" as="alternateBounds" />
          </mxGeometry>
        </mxCell>
        <mxCell id="lI5NkBWsjLsQJ3-CtALw-40" value="" style="shape=tableRow;horizontal=0;startSize=0;swimlaneHead=0;swimlaneBody=0;fillColor=none;collapsible=0;dropTarget=0;points=[[0,0.5],[1,0.5]];portConstraint=eastwest;top=0;left=0;right=0;bottom=0;" vertex="1" parent="lI5NkBWsjLsQJ3-CtALw-36">
          <mxGeometry y="60" width="300" height="30" as="geometry" />
        </mxCell>
        <mxCell id="lI5NkBWsjLsQJ3-CtALw-41" value="" style="shape=partialRectangle;connectable=0;fillColor=none;top=0;left=0;bottom=0;right=0;editable=1;overflow=hidden;whiteSpace=wrap;html=1;" vertex="1" parent="lI5NkBWsjLsQJ3-CtALw-40">
          <mxGeometry width="30" height="30" as="geometry">
            <mxRectangle width="30" height="30" as="alternateBounds" />
          </mxGeometry>
        </mxCell>
        <mxCell id="lI5NkBWsjLsQJ3-CtALw-42" value="ORDER_ITEM_COUNT&amp;nbsp;: INT" style="shape=partialRectangle;connectable=0;fillColor=none;top=0;left=0;bottom=0;right=0;align=left;spacingLeft=6;overflow=hidden;whiteSpace=wrap;html=1;" vertex="1" parent="lI5NkBWsjLsQJ3-CtALw-40">
          <mxGeometry x="30" width="270" height="30" as="geometry">
            <mxRectangle width="270" height="30" as="alternateBounds" />
          </mxGeometry>
        </mxCell>
        <mxCell id="lI5NkBWsjLsQJ3-CtALw-43" value="" style="shape=tableRow;horizontal=0;startSize=0;swimlaneHead=0;swimlaneBody=0;fillColor=none;collapsible=0;dropTarget=0;points=[[0,0.5],[1,0.5]];portConstraint=eastwest;top=0;left=0;right=0;bottom=0;" vertex="1" parent="lI5NkBWsjLsQJ3-CtALw-36">
          <mxGeometry y="90" width="300" height="30" as="geometry" />
        </mxCell>
        <mxCell id="lI5NkBWsjLsQJ3-CtALw-44" value="" style="shape=partialRectangle;connectable=0;fillColor=none;top=0;left=0;bottom=0;right=0;editable=1;overflow=hidden;whiteSpace=wrap;html=1;" vertex="1" parent="lI5NkBWsjLsQJ3-CtALw-43">
          <mxGeometry width="30" height="30" as="geometry">
            <mxRectangle width="30" height="30" as="alternateBounds" />
          </mxGeometry>
        </mxCell>
        <mxCell id="lI5NkBWsjLsQJ3-CtALw-45" value="ORDER_id&lt;span style=&quot;border-color: var(--border-color); font-weight: 700; background-color: initial;&quot;&gt;&amp;nbsp;:&amp;nbsp;&lt;/span&gt;BIGINT&amp;nbsp;" style="shape=partialRectangle;connectable=0;fillColor=none;top=0;left=0;bottom=0;right=0;align=left;spacingLeft=6;overflow=hidden;whiteSpace=wrap;html=1;strokeColor=#FFFFFF;" vertex="1" parent="lI5NkBWsjLsQJ3-CtALw-43">
          <mxGeometry x="30" width="270" height="30" as="geometry">
            <mxRectangle width="270" height="30" as="alternateBounds" />
          </mxGeometry>
        </mxCell>
        <mxCell id="lI5NkBWsjLsQJ3-CtALw-46" value="" style="shape=tableRow;horizontal=0;startSize=0;swimlaneHead=0;swimlaneBody=0;fillColor=none;collapsible=0;dropTarget=0;points=[[0,0.5],[1,0.5]];portConstraint=eastwest;top=0;left=0;right=0;bottom=0;" vertex="1" parent="lI5NkBWsjLsQJ3-CtALw-36">
          <mxGeometry y="120" width="300" height="30" as="geometry" />
        </mxCell>
        <mxCell id="lI5NkBWsjLsQJ3-CtALw-47" value="" style="shape=partialRectangle;connectable=0;fillColor=none;top=0;left=0;bottom=0;right=0;editable=1;overflow=hidden;whiteSpace=wrap;html=1;" vertex="1" parent="lI5NkBWsjLsQJ3-CtALw-46">
          <mxGeometry width="30" height="30" as="geometry">
            <mxRectangle width="30" height="30" as="alternateBounds" />
          </mxGeometry>
        </mxCell>
        <mxCell id="lI5NkBWsjLsQJ3-CtALw-48" value="ITEMS_id&lt;span style=&quot;border-color: var(--border-color); font-weight: 700; background-color: initial;&quot;&gt;&amp;nbsp; :&amp;nbsp;&lt;/span&gt;BIGINT&amp;nbsp;" style="shape=partialRectangle;connectable=0;fillColor=none;top=0;left=0;bottom=0;right=0;align=left;spacingLeft=6;overflow=hidden;whiteSpace=wrap;html=1;" vertex="1" parent="lI5NkBWsjLsQJ3-CtALw-46">
          <mxGeometry x="30" width="270" height="30" as="geometry">
            <mxRectangle width="270" height="30" as="alternateBounds" />
          </mxGeometry>
        </mxCell>
        <mxCell id="lI5NkBWsjLsQJ3-CtALw-52" value="MEMEBERS_ADDRESS" style="shape=table;startSize=30;container=1;collapsible=1;childLayout=tableLayout;fixedRows=1;rowLines=0;fontStyle=1;align=center;resizeLast=1;html=1;" vertex="1" parent="1">
          <mxGeometry x="82" y="630" width="250" height="180" as="geometry" />
        </mxCell>
        <mxCell id="lI5NkBWsjLsQJ3-CtALw-53" value="" style="shape=tableRow;horizontal=0;startSize=0;swimlaneHead=0;swimlaneBody=0;fillColor=none;collapsible=0;dropTarget=0;points=[[0,0.5],[1,0.5]];portConstraint=eastwest;top=0;left=0;right=0;bottom=1;" vertex="1" parent="lI5NkBWsjLsQJ3-CtALw-52">
          <mxGeometry y="30" width="250" height="30" as="geometry" />
        </mxCell>
        <mxCell id="lI5NkBWsjLsQJ3-CtALw-54" value="PK" style="shape=partialRectangle;connectable=0;fillColor=none;top=0;left=0;bottom=0;right=0;fontStyle=1;overflow=hidden;whiteSpace=wrap;html=1;" vertex="1" parent="lI5NkBWsjLsQJ3-CtALw-53">
          <mxGeometry width="30" height="30" as="geometry">
            <mxRectangle width="30" height="30" as="alternateBounds" />
          </mxGeometry>
        </mxCell>
        <mxCell id="lI5NkBWsjLsQJ3-CtALw-55" value="MEMEBERS_ADDRESS_id&lt;span style=&quot;background-color: initial;&quot;&gt;&amp;nbsp;: BIGINT&amp;nbsp;&lt;/span&gt;" style="shape=partialRectangle;connectable=0;fillColor=none;top=0;left=0;bottom=0;right=0;align=left;spacingLeft=6;fontStyle=5;overflow=hidden;whiteSpace=wrap;html=1;" vertex="1" parent="lI5NkBWsjLsQJ3-CtALw-53">
          <mxGeometry x="30" width="220" height="30" as="geometry">
            <mxRectangle width="220" height="30" as="alternateBounds" />
          </mxGeometry>
        </mxCell>
        <mxCell id="lI5NkBWsjLsQJ3-CtALw-56" value="" style="shape=tableRow;horizontal=0;startSize=0;swimlaneHead=0;swimlaneBody=0;fillColor=none;collapsible=0;dropTarget=0;points=[[0,0.5],[1,0.5]];portConstraint=eastwest;top=0;left=0;right=0;bottom=0;" vertex="1" parent="lI5NkBWsjLsQJ3-CtALw-52">
          <mxGeometry y="60" width="250" height="30" as="geometry" />
        </mxCell>
        <mxCell id="lI5NkBWsjLsQJ3-CtALw-57" value="" style="shape=partialRectangle;connectable=0;fillColor=none;top=0;left=0;bottom=0;right=0;editable=1;overflow=hidden;whiteSpace=wrap;html=1;" vertex="1" parent="lI5NkBWsjLsQJ3-CtALw-56">
          <mxGeometry width="30" height="30" as="geometry">
            <mxRectangle width="30" height="30" as="alternateBounds" />
          </mxGeometry>
        </mxCell>
        <mxCell id="lI5NkBWsjLsQJ3-CtALw-58" value="MEMEBERS_SI&amp;nbsp;: varchar(255)" style="shape=partialRectangle;connectable=0;fillColor=none;top=0;left=0;bottom=0;right=0;align=left;spacingLeft=6;overflow=hidden;whiteSpace=wrap;html=1;" vertex="1" parent="lI5NkBWsjLsQJ3-CtALw-56">
          <mxGeometry x="30" width="220" height="30" as="geometry">
            <mxRectangle width="220" height="30" as="alternateBounds" />
          </mxGeometry>
        </mxCell>
        <mxCell id="lI5NkBWsjLsQJ3-CtALw-59" value="" style="shape=tableRow;horizontal=0;startSize=0;swimlaneHead=0;swimlaneBody=0;fillColor=none;collapsible=0;dropTarget=0;points=[[0,0.5],[1,0.5]];portConstraint=eastwest;top=0;left=0;right=0;bottom=0;" vertex="1" parent="lI5NkBWsjLsQJ3-CtALw-52">
          <mxGeometry y="90" width="250" height="30" as="geometry" />
        </mxCell>
        <mxCell id="lI5NkBWsjLsQJ3-CtALw-60" value="" style="shape=partialRectangle;connectable=0;fillColor=none;top=0;left=0;bottom=0;right=0;editable=1;overflow=hidden;whiteSpace=wrap;html=1;" vertex="1" parent="lI5NkBWsjLsQJ3-CtALw-59">
          <mxGeometry width="30" height="30" as="geometry">
            <mxRectangle width="30" height="30" as="alternateBounds" />
          </mxGeometry>
        </mxCell>
        <mxCell id="lI5NkBWsjLsQJ3-CtALw-61" value="MEMEBERS_DO&lt;span style=&quot;background-color: initial;&quot;&gt;&amp;nbsp;: varchar(255)&lt;/span&gt;" style="shape=partialRectangle;connectable=0;fillColor=none;top=0;left=0;bottom=0;right=0;align=left;spacingLeft=6;overflow=hidden;whiteSpace=wrap;html=1;strokeColor=#FFFFFF;" vertex="1" parent="lI5NkBWsjLsQJ3-CtALw-59">
          <mxGeometry x="30" width="220" height="30" as="geometry">
            <mxRectangle width="220" height="30" as="alternateBounds" />
          </mxGeometry>
        </mxCell>
        <mxCell id="lI5NkBWsjLsQJ3-CtALw-62" value="" style="shape=tableRow;horizontal=0;startSize=0;swimlaneHead=0;swimlaneBody=0;fillColor=none;collapsible=0;dropTarget=0;points=[[0,0.5],[1,0.5]];portConstraint=eastwest;top=0;left=0;right=0;bottom=0;" vertex="1" parent="lI5NkBWsjLsQJ3-CtALw-52">
          <mxGeometry y="120" width="250" height="30" as="geometry" />
        </mxCell>
        <mxCell id="lI5NkBWsjLsQJ3-CtALw-63" value="" style="shape=partialRectangle;connectable=0;fillColor=none;top=0;left=0;bottom=0;right=0;editable=1;overflow=hidden;whiteSpace=wrap;html=1;" vertex="1" parent="lI5NkBWsjLsQJ3-CtALw-62">
          <mxGeometry width="30" height="30" as="geometry">
            <mxRectangle width="30" height="30" as="alternateBounds" />
          </mxGeometry>
        </mxCell>
        <mxCell id="lI5NkBWsjLsQJ3-CtALw-64" value="MEMEBERS_DETAIL&amp;nbsp;: varchar(255)" style="shape=partialRectangle;connectable=0;fillColor=none;top=0;left=0;bottom=0;right=0;align=left;spacingLeft=6;overflow=hidden;whiteSpace=wrap;html=1;" vertex="1" parent="lI5NkBWsjLsQJ3-CtALw-62">
          <mxGeometry x="30" width="220" height="30" as="geometry">
            <mxRectangle width="220" height="30" as="alternateBounds" />
          </mxGeometry>
        </mxCell>
        <mxCell id="lI5NkBWsjLsQJ3-CtALw-65" value="" style="shape=tableRow;horizontal=0;startSize=0;swimlaneHead=0;swimlaneBody=0;fillColor=none;collapsible=0;dropTarget=0;points=[[0,0.5],[1,0.5]];portConstraint=eastwest;top=0;left=0;right=0;bottom=0;" vertex="1" parent="lI5NkBWsjLsQJ3-CtALw-52">
          <mxGeometry y="150" width="250" height="30" as="geometry" />
        </mxCell>
        <mxCell id="lI5NkBWsjLsQJ3-CtALw-66" value="FK" style="shape=partialRectangle;connectable=0;fillColor=none;top=0;left=0;bottom=0;right=0;editable=1;overflow=hidden;whiteSpace=wrap;html=1;" vertex="1" parent="lI5NkBWsjLsQJ3-CtALw-65">
          <mxGeometry width="30" height="30" as="geometry">
            <mxRectangle width="30" height="30" as="alternateBounds" />
          </mxGeometry>
        </mxCell>
        <mxCell id="lI5NkBWsjLsQJ3-CtALw-67" value="MEMEBERS_id&amp;nbsp; : BIGINT&amp;nbsp;" style="shape=partialRectangle;connectable=0;fillColor=none;top=0;left=0;bottom=0;right=0;align=left;spacingLeft=6;overflow=hidden;whiteSpace=wrap;html=1;" vertex="1" parent="lI5NkBWsjLsQJ3-CtALw-65">
          <mxGeometry x="30" width="220" height="30" as="geometry">
            <mxRectangle width="220" height="30" as="alternateBounds" />
          </mxGeometry>
        </mxCell>
        <mxCell id="lI5NkBWsjLsQJ3-CtALw-72" value="" style="edgeStyle=entityRelationEdgeStyle;fontSize=12;html=1;endArrow=ERzeroToOne;startArrow=ERmandOne;rounded=0;exitX=0.496;exitY=1.033;exitDx=0;exitDy=0;exitPerimeter=0;entryX=0.5;entryY=0;entryDx=0;entryDy=0;" edge="1" parent="1" source="s3wD5Ka3jSvJY78mtmWY-14" target="lI5NkBWsjLsQJ3-CtALw-1">
          <mxGeometry width="100" height="100" relative="1" as="geometry">
            <mxPoint x="10" y="110" as="sourcePoint" />
            <mxPoint x="70" y="420" as="targetPoint" />
            <Array as="points">
              <mxPoint x="50" y="120" />
              <mxPoint x="410" y="280" />
              <mxPoint x="60" y="190" />
              <mxPoint x="70" y="190" />
              <mxPoint x="80" y="310" />
              <mxPoint x="60" y="340" />
              <mxPoint x="380" y="280" />
            </Array>
          </mxGeometry>
        </mxCell>
        <mxCell id="lI5NkBWsjLsQJ3-CtALw-76" value="" style="edgeStyle=entityRelationEdgeStyle;fontSize=12;html=1;endArrow=ERzeroToMany;startArrow=ERmandOne;rounded=0;exitX=1;exitY=0.5;exitDx=0;exitDy=0;entryX=0;entryY=0.5;entryDx=0;entryDy=0;" edge="1" parent="1" source="s3wD5Ka3jSvJY78mtmWY-5" target="lI5NkBWsjLsQJ3-CtALw-21">
          <mxGeometry width="100" height="100" relative="1" as="geometry">
            <mxPoint x="690" y="520" as="sourcePoint" />
            <mxPoint x="790" y="420" as="targetPoint" />
          </mxGeometry>
        </mxCell>
        <mxCell id="lI5NkBWsjLsQJ3-CtALw-77" value="" style="edgeStyle=entityRelationEdgeStyle;fontSize=12;html=1;endArrow=ERzeroToMany;startArrow=ERmandOne;rounded=0;exitX=1;exitY=0.5;exitDx=0;exitDy=0;" edge="1" parent="1" source="s3wD5Ka3jSvJY78mtmWY-8" target="lI5NkBWsjLsQJ3-CtALw-36">
          <mxGeometry width="100" height="100" relative="1" as="geometry">
            <mxPoint x="342" y="155" as="sourcePoint" />
            <mxPoint x="470" y="155" as="targetPoint" />
          </mxGeometry>
        </mxCell>
        <mxCell id="lI5NkBWsjLsQJ3-CtALw-78" value="" style="edgeStyle=entityRelationEdgeStyle;fontSize=12;html=1;endArrow=ERoneToMany;rounded=0;exitX=1;exitY=0.5;exitDx=0;exitDy=0;entryX=1;entryY=0.5;entryDx=0;entryDy=0;" edge="1" parent="1" source="s3wD5Ka3jSvJY78mtmWY-11" target="lI5NkBWsjLsQJ3-CtALw-59">
          <mxGeometry width="100" height="100" relative="1" as="geometry">
            <mxPoint x="690" y="520" as="sourcePoint" />
            <mxPoint x="790" y="420" as="targetPoint" />
          </mxGeometry>
        </mxCell>
        <mxCell id="lI5NkBWsjLsQJ3-CtALw-79" value="" style="edgeStyle=entityRelationEdgeStyle;fontSize=12;html=1;endArrow=ERmany;startArrow=ERmany;rounded=0;entryX=0;entryY=0.5;entryDx=0;entryDy=0;exitX=1;exitY=0.5;exitDx=0;exitDy=0;" edge="1" parent="1" source="lI5NkBWsjLsQJ3-CtALw-5" target="lI5NkBWsjLsQJ3-CtALw-27">
          <mxGeometry width="100" height="100" relative="1" as="geometry">
            <mxPoint x="690" y="420" as="sourcePoint" />
            <mxPoint x="790" y="320" as="targetPoint" />
          </mxGeometry>
        </mxCell>
        <mxCell id="lI5NkBWsjLsQJ3-CtALw-80" value="" style="edgeStyle=entityRelationEdgeStyle;fontSize=12;html=1;endArrow=ERmany;startArrow=ERmany;rounded=0;exitX=1.004;exitY=0.033;exitDx=0;exitDy=0;exitPerimeter=0;entryX=0;entryY=0.5;entryDx=0;entryDy=0;" edge="1" parent="1" source="lI5NkBWsjLsQJ3-CtALw-11" target="lI5NkBWsjLsQJ3-CtALw-46">
          <mxGeometry width="100" height="100" relative="1" as="geometry">
            <mxPoint x="700" y="430" as="sourcePoint" />
            <mxPoint x="800" y="330" as="targetPoint" />
          </mxGeometry>
        </mxCell>
        <mxCell id="lI5NkBWsjLsQJ3-CtALw-81" value="" style="edgeStyle=entityRelationEdgeStyle;fontSize=12;html=1;endArrow=ERoneToMany;rounded=0;exitX=0.524;exitY=1.067;exitDx=0;exitDy=0;exitPerimeter=0;entryX=0.553;entryY=0.013;entryDx=0;entryDy=0;entryPerimeter=0;" edge="1" parent="1" source="lI5NkBWsjLsQJ3-CtALw-30" target="lI5NkBWsjLsQJ3-CtALw-36">
          <mxGeometry width="100" height="100" relative="1" as="geometry">
            <mxPoint x="690" y="420" as="sourcePoint" />
            <mxPoint x="610" y="370" as="targetPoint" />
            <Array as="points">
              <mxPoint x="740" y="270" />
            </Array>
          </mxGeometry>
        </mxCell>
      </root>
    </mxGraphModel>
  </diagram>
</mxfile>
